ISO-10303-21;
HEADER;
/* Generated by software containing ST-Developer
 * from STEP Tools, Inc. (www.steptools.com) 
 */

FILE_DESCRIPTION(
/* description */ (''),
/* implementation_level */ '2;1');

FILE_NAME(
/* name */ 'marker holder end effector 724.step',
/* time_stamp */ '2026-07-24T21:52:02-05:00',
/* author */ (''),
/* organization */ (''),
/* preprocessor_version */ 'ST-DEVELOPER v20.1',
/* originating_system */ 'Autodesk Translation Framework v15.8.0.0',
/* authorisation */ '');

FILE_SCHEMA (('AUTOMOTIVE_DESIGN { 1 0 10303 214 3 1 1 }'));
ENDSEC;

DATA;
#10=MECHANICAL_DESIGN_GEOMETRIC_PRESENTATION_REPRESENTATION('',(#35,#36),
#1491);
#11=ITEM_DEFINED_TRANSFORMATION($,$,#707,#794);
#12=ITEM_DEFINED_TRANSFORMATION($,$,#734,#795);
#13=(
REPRESENTATION_RELATIONSHIP($,$,#1505,#1504)
REPRESENTATION_RELATIONSHIP_WITH_TRANSFORMATION(#11)
SHAPE_REPRESENTATION_RELATIONSHIP()
);
#14=(
REPRESENTATION_RELATIONSHIP($,$,#1506,#1504)
REPRESENTATION_RELATIONSHIP_WITH_TRANSFORMATION(#12)
SHAPE_REPRESENTATION_RELATIONSHIP()
);
#15=CONTEXT_DEPENDENT_SHAPE_REPRESENTATION(#13,#1502);
#16=CONTEXT_DEPENDENT_SHAPE_REPRESENTATION(#14,#1503);
#17=NEXT_ASSEMBLY_USAGE_OCCURRENCE('Component1:1','Component1:1',
'Component1:1',#1508,#1509,'Component1:1');
#18=NEXT_ASSEMBLY_USAGE_OCCURRENCE('Connector to arm:1',
'Connector to arm:1','Connector to arm:1',#1508,#1510,
'Connector to arm:1');
#19=CONICAL_SURFACE('',#753,2.,0.727453232231237);
#20=CONICAL_SURFACE('',#756,2.,0.727453232231237);
#21=CONICAL_SURFACE('',#757,2.,0.727453232231237);
#22=CONICAL_SURFACE('',#761,2.,0.727453232231237);
#23=CONICAL_SURFACE('',#762,2.,0.727453232231237);
#24=CONICAL_SURFACE('',#766,16.061,0.727453232231237);
#25=CONICAL_SURFACE('',#768,16.061,0.727453232231237);
#26=CONICAL_SURFACE('',#770,16.061,0.727453232231237);
#27=CONICAL_SURFACE('',#778,16.061,0.727453232231237);
#28=CONICAL_SURFACE('',#781,2.,0.727453232231237);
#29=TOROIDAL_SURFACE('',#735,12.75,0.25);
#30=TOROIDAL_SURFACE('',#772,14.061,2.);
#31=SHAPE_REPRESENTATION_RELATIONSHIP('SRR','None',#1505,#33);
#32=SHAPE_REPRESENTATION_RELATIONSHIP('SRR','None',#1506,#34);
#33=ADVANCED_BREP_SHAPE_REPRESENTATION('',(#37),#1489);
#34=ADVANCED_BREP_SHAPE_REPRESENTATION('',(#38),#1490);
#35=STYLED_ITEM('',(#1523),#37);
#36=STYLED_ITEM('',(#1523),#38);
#37=MANIFOLD_SOLID_BREP('Body1',#681);
#38=MANIFOLD_SOLID_BREP('Body1',#682);
#39=FACE_BOUND('',#102,.T.);
#40=FACE_BOUND('',#105,.T.);
#41=FACE_BOUND('',#111,.T.);
#42=FACE_BOUND('',#112,.T.);
#43=FACE_BOUND('',#114,.T.);
#44=FACE_BOUND('',#115,.T.);
#45=FACE_BOUND('',#116,.T.);
#46=FACE_BOUND('',#117,.T.);
#47=FACE_BOUND('',#119,.T.);
#48=FACE_BOUND('',#120,.T.);
#49=FACE_BOUND('',#127,.T.);
#50=FACE_BOUND('',#142,.T.);
#51=FACE_BOUND('',#149,.T.);
#52=FACE_BOUND('',#150,.T.);
#53=FACE_BOUND('',#151,.T.);
#54=PLANE('',#710);
#55=PLANE('',#714);
#56=PLANE('',#724);
#57=PLANE('',#728);
#58=PLANE('',#732);
#59=PLANE('',#733);
#60=PLANE('',#745);
#61=PLANE('',#782);
#62=PLANE('',#793);
#63=FACE_OUTER_BOUND('',#100,.T.);
#64=FACE_OUTER_BOUND('',#101,.T.);
#65=FACE_OUTER_BOUND('',#103,.T.);
#66=FACE_OUTER_BOUND('',#104,.T.);
#67=FACE_OUTER_BOUND('',#106,.T.);
#68=FACE_OUTER_BOUND('',#107,.T.);
#69=FACE_OUTER_BOUND('',#108,.T.);
#70=FACE_OUTER_BOUND('',#109,.T.);
#71=FACE_OUTER_BOUND('',#110,.T.);
#72=FACE_OUTER_BOUND('',#113,.T.);
#73=FACE_OUTER_BOUND('',#118,.T.);
#74=FACE_OUTER_BOUND('',#121,.T.);
#75=FACE_OUTER_BOUND('',#122,.T.);
#76=FACE_OUTER_BOUND('',#123,.T.);
#77=FACE_OUTER_BOUND('',#124,.T.);
#78=FACE_OUTER_BOUND('',#125,.T.);
#79=FACE_OUTER_BOUND('',#126,.T.);
#80=FACE_OUTER_BOUND('',#128,.T.);
#81=FACE_OUTER_BOUND('',#129,.T.);
#82=FACE_OUTER_BOUND('',#130,.T.);
#83=FACE_OUTER_BOUND('',#131,.T.);
#84=FACE_OUTER_BOUND('',#132,.T.);
#85=FACE_OUTER_BOUND('',#133,.T.);
#86=FACE_OUTER_BOUND('',#134,.T.);
#87=FACE_OUTER_BOUND('',#135,.T.);
#88=FACE_OUTER_BOUND('',#136,.T.);
#89=FACE_OUTER_BOUND('',#137,.T.);
#90=FACE_OUTER_BOUND('',#138,.T.);
#91=FACE_OUTER_BOUND('',#139,.T.);
#92=FACE_OUTER_BOUND('',#140,.T.);
#93=FACE_OUTER_BOUND('',#141,.T.);
#94=FACE_OUTER_BOUND('',#143,.T.);
#95=FACE_OUTER_BOUND('',#144,.T.);
#96=FACE_OUTER_BOUND('',#145,.T.);
#97=FACE_OUTER_BOUND('',#146,.T.);
#98=FACE_OUTER_BOUND('',#147,.T.);
#99=FACE_OUTER_BOUND('',#148,.T.);
#100=EDGE_LOOP('',(#434,#435,#436,#437));
#101=EDGE_LOOP('',(#438));
#102=EDGE_LOOP('',(#439));
#103=EDGE_LOOP('',(#440,#441,#442,#443));
#104=EDGE_LOOP('',(#444));
#105=EDGE_LOOP('',(#445));
#106=EDGE_LOOP('',(#446,#447,#448,#449));
#107=EDGE_LOOP('',(#450,#451,#452,#453));
#108=EDGE_LOOP('',(#454,#455,#456,#457));
#109=EDGE_LOOP('',(#458,#459,#460,#461));
#110=EDGE_LOOP('',(#462,#463,#464,#465));
#111=EDGE_LOOP('',(#466));
#112=EDGE_LOOP('',(#467));
#113=EDGE_LOOP('',(#468,#469,#470,#471));
#114=EDGE_LOOP('',(#472));
#115=EDGE_LOOP('',(#473));
#116=EDGE_LOOP('',(#474));
#117=EDGE_LOOP('',(#475));
#118=EDGE_LOOP('',(#476,#477,#478,#479));
#119=EDGE_LOOP('',(#480));
#120=EDGE_LOOP('',(#481));
#121=EDGE_LOOP('',(#482,#483,#484,#485));
#122=EDGE_LOOP('',(#486,#487,#488,#489));
#123=EDGE_LOOP('',(#490,#491,#492,#493));
#124=EDGE_LOOP('',(#494,#495,#496,#497,#498));
#125=EDGE_LOOP('',(#499,#500,#501,#502,#503,#504,#505,#506,#507,#508,#509));
#126=EDGE_LOOP('',(#510));
#127=EDGE_LOOP('',(#511,#512));
#128=EDGE_LOOP('',(#513,#514,#515,#516,#517,#518,#519,#520,#521,#522,#523,
#524));
#129=EDGE_LOOP('',(#525,#526,#527,#528,#529,#530,#531,#532));
#130=EDGE_LOOP('',(#533,#534,#535));
#131=EDGE_LOOP('',(#536,#537,#538,#539,#540,#541,#542,#543));
#132=EDGE_LOOP('',(#544,#545));
#133=EDGE_LOOP('',(#546,#547,#548,#549,#550,#551,#552,#553));
#134=EDGE_LOOP('',(#554,#555,#556,#557));
#135=EDGE_LOOP('',(#558,#559,#560,#561,#562));
#136=EDGE_LOOP('',(#563,#564,#565,#566));
#137=EDGE_LOOP('',(#567,#568,#569,#570,#571,#572));
#138=EDGE_LOOP('',(#573,#574,#575,#576,#577,#578,#579,#580,#581,#582,#583,
#584));
#139=EDGE_LOOP('',(#585,#586,#587,#588,#589));
#140=EDGE_LOOP('',(#590,#591));
#141=EDGE_LOOP('',(#592,#593));
#142=EDGE_LOOP('',(#594,#595,#596,#597,#598,#599,#600,#601));
#143=EDGE_LOOP('',(#602,#603,#604));
#144=EDGE_LOOP('',(#605,#606,#607,#608,#609,#610,#611));
#145=EDGE_LOOP('',(#612,#613,#614,#615));
#146=EDGE_LOOP('',(#616,#617,#618,#619));
#147=EDGE_LOOP('',(#620,#621,#622,#623));
#148=EDGE_LOOP('',(#624));
#149=EDGE_LOOP('',(#625));
#150=EDGE_LOOP('',(#626));
#151=EDGE_LOOP('',(#627));
#152=CIRCLE('',#709,3.25);
#153=CIRCLE('',#711,1.5);
#154=CIRCLE('',#713,3.25);
#155=CIRCLE('',#715,1.5);
#156=CIRCLE('',#717,1.5);
#157=CIRCLE('',#719,1.5);
#158=CIRCLE('',#721,1.5);
#159=CIRCLE('',#723,1.5);
#160=CIRCLE('',#726,14.925);
#161=CIRCLE('',#727,14.925);
#162=CIRCLE('',#730,6.925);
#163=CIRCLE('',#731,6.925);
#164=CIRCLE('',#736,13.);
#165=CIRCLE('',#737,0.25);
#166=CIRCLE('',#738,12.75);
#167=CIRCLE('',#739,13.);
#168=CIRCLE('',#741,13.);
#169=CIRCLE('',#742,13.);
#170=CIRCLE('',#743,13.);
#171=CIRCLE('',#744,13.);
#172=CIRCLE('',#746,12.5);
#173=CIRCLE('',#747,12.5);
#174=CIRCLE('',#749,12.5);
#175=CIRCLE('',#750,12.5);
#176=CIRCLE('',#751,12.5);
#177=CIRCLE('',#752,12.5);
#178=CIRCLE('',#754,2.);
#179=CIRCLE('',#755,5.56136612898158);
#180=CIRCLE('',#758,2.);
#181=CIRCLE('',#759,5.56136612898158);
#182=CIRCLE('',#760,5.56136612898158);
#183=CIRCLE('',#763,2.);
#184=CIRCLE('',#764,5.56136612898158);
#185=CIRCLE('',#765,5.56136612898158);
#186=CIRCLE('',#767,12.4996338710184);
#187=CIRCLE('',#769,12.4996338710184);
#188=CIRCLE('',#771,12.4996338710184);
#189=CIRCLE('',#773,16.061);
#190=CIRCLE('',#774,2.);
#191=CIRCLE('',#775,15.5547406919847);
#192=CIRCLE('',#776,15.5547406919847);
#193=CIRCLE('',#777,16.061);
#194=CIRCLE('',#780,16.061);
#195=CIRCLE('',#783,12.5);
#196=CIRCLE('',#784,12.5);
#197=CIRCLE('',#788,2.);
#198=CIRCLE('',#790,2.);
#199=CIRCLE('',#792,2.);
#200=LINE('',#1044,#225);
#201=LINE('',#1090,#226);
#202=LINE('',#1099,#227);
#203=LINE('',#1140,#228);
#204=LINE('',#1146,#229);
#205=LINE('',#1187,#230);
#206=LINE('',#1192,#231);
#207=LINE('',#1194,#232);
#208=LINE('',#1196,#233);
#209=LINE('',#1197,#234);
#210=LINE('',#1203,#235);
#211=LINE('',#1206,#236);
#212=LINE('',#1208,#237);
#213=LINE('',#1209,#238);
#214=LINE('',#1254,#239);
#215=LINE('',#1262,#240);
#216=LINE('',#1313,#241);
#217=LINE('',#1339,#242);
#218=LINE('',#1363,#243);
#219=LINE('',#1393,#244);
#220=LINE('',#1403,#245);
#221=LINE('',#1468,#246);
#222=LINE('',#1472,#247);
#223=LINE('',#1476,#248);
#224=LINE('',#1480,#249);
#225=VECTOR('',#802,3.25);
#226=VECTOR('',#811,3.25);
#227=VECTOR('',#822,1.5);
#228=VECTOR('',#825,1.5);
#229=VECTOR('',#832,1.5);
#230=VECTOR('',#835,1.5);
#231=VECTOR('',#840,10.);
#232=VECTOR('',#841,10.);
#233=VECTOR('',#842,10.);
#234=VECTOR('',#843,10.);
#235=VECTOR('',#850,10.);
#236=VECTOR('',#853,10.);
#237=VECTOR('',#854,10.);
#238=VECTOR('',#855,10.);
#239=VECTOR('',#888,12.5);
#240=VECTOR('',#897,12.5);
#241=VECTOR('',#910,2.);
#242=VECTOR('',#919,2.);
#243=VECTOR('',#930,2.);
#244=VECTOR('',#961,16.061);
#245=VECTOR('',#966,16.061);
#246=VECTOR('',#979,12.5);
#247=VECTOR('',#984,2.);
#248=VECTOR('',#989,2.);
#249=VECTOR('',#994,2.);
#250=B_SPLINE_CURVE_WITH_KNOTS('',3,(#1005,#1006,#1007,#1008,#1009,#1010,
#1011,#1012,#1013,#1014,#1015,#1016,#1017,#1018,#1019,#1020,#1021,#1022,
#1023,#1024,#1025,#1026,#1027,#1028,#1029,#1030,#1031,#1032,#1033,#1034,
#1035,#1036,#1037,#1038,#1039,#1040,#1041,#1042),.UNSPECIFIED.,.T.,.F.,
(4,2,2,2,2,2,2,2,2,2,2,2,2,2,2,2,2,2,4),(0.,0.119414066940031,0.238828133880062,
0.402963931582745,0.567099729285428,0.791942452611151,1.01678517593687,
1.19238953761109,1.23883527429644,1.28528101098179,1.3405476764938,1.39581434200581,
1.61446958451555,1.80853354694262,2.0025975093697,2.15825436915351,2.31391122893733,
2.44176793360916,2.56962463828098),.UNSPECIFIED.);
#251=B_SPLINE_CURVE_WITH_KNOTS('',3,(#1051,#1052,#1053,#1054,#1055,#1056,
#1057,#1058,#1059,#1060,#1061,#1062,#1063,#1064,#1065,#1066,#1067,#1068,
#1069,#1070,#1071,#1072,#1073,#1074,#1075,#1076,#1077,#1078,#1079,#1080,
#1081,#1082,#1083,#1084,#1085,#1086,#1087,#1088),.UNSPECIFIED.,.T.,.F.,
(4,2,2,2,2,2,2,2,2,2,2,2,2,2,2,2,2,2,4),(0.,0.119414066940031,0.238828133880061,
0.402963931582745,0.567099729285428,0.791942452611151,1.01678517593687,
1.19238953761109,1.23883527429644,1.28528101098179,1.33172674766713,1.37817248435248,
1.5537768460267,1.77861956935242,2.00346229267814,2.16759809038083,2.33173388808351,
2.45114795502354,2.57056202196357),.UNSPECIFIED.);
#252=B_SPLINE_CURVE_WITH_KNOTS('',3,(#1100,#1101,#1102,#1103,#1104,#1105,
#1106,#1107,#1108,#1109,#1110,#1111,#1112,#1113,#1114,#1115,#1116,#1117,
#1118,#1119,#1120,#1121,#1122,#1123,#1124,#1125,#1126,#1127,#1128,#1129,
#1130,#1131,#1132,#1133,#1134,#1135,#1136,#1137),.UNSPECIFIED.,.T.,.F.,
(4,2,2,2,2,2,2,2,2,2,2,2,2,2,2,2,2,2,4),(0.,0.0605466118498339,0.121093223699668,
0.195653226903757,0.270213230107846,0.352067662680179,0.433922095252512,
0.500945285807865,0.534456881085541,0.567968476363218,0.59672892297296,
0.625489369582701,0.683010262802185,0.773871324318091,0.864732385833997,
0.944558081037174,1.02438377624035,1.07963376147169,1.13488374670304),
 .UNSPECIFIED.);
#253=B_SPLINE_CURVE_WITH_KNOTS('',3,(#1147,#1148,#1149,#1150,#1151,#1152,
#1153,#1154,#1155,#1156,#1157,#1158,#1159,#1160,#1161,#1162,#1163,#1164,
#1165,#1166,#1167,#1168,#1169,#1170,#1171,#1172,#1173,#1174,#1175,#1176,
#1177,#1178,#1179,#1180,#1181,#1182,#1183,#1184),.UNSPECIFIED.,.T.,.F.,
(4,2,2,2,2,2,2,2,2,2,2,2,2,2,2,2,2,2,4),(0.,0.0552499852313435,0.110499970462687,
0.190325665665864,0.270151360869041,0.361012422384948,0.451873483900854,
0.509394377120337,0.538154823730079,0.56691527033982,0.595675716949562,
0.624436163559304,0.681957056778787,0.772818118294693,0.863679179810599,
0.943504875013777,1.02333057021695,1.0785805554483,1.13383054067964),
 .UNSPECIFIED.);
#254=B_SPLINE_CURVE_WITH_KNOTS('',3,(#1229,#1230,#1231,#1232,#1233,#1234),
 .UNSPECIFIED.,.F.,.F.,(4,2,4),(2.00998091420219,2.1106467151677,2.21131251613288),
 .UNSPECIFIED.);
#255=B_SPLINE_CURVE_WITH_KNOTS('',3,(#1238,#1239,#1240,#1241,#1242,#1243),
 .UNSPECIFIED.,.F.,.F.,(4,2,4),(2.00998091274343,2.1106467151677,2.21131251759197),
 .UNSPECIFIED.);
#256=B_SPLINE_CURVE_WITH_KNOTS('',3,(#1247,#1248,#1249,#1250,#1251,#1252),
 .UNSPECIFIED.,.F.,.F.,(4,2,4),(2.00998091420252,2.1106467151677,2.21131251613321),
 .UNSPECIFIED.);
#257=B_SPLINE_CURVE_WITH_KNOTS('',3,(#1266,#1267,#1268,#1269,#1270,#1271,
#1272,#1273,#1274,#1275,#1276,#1277),.UNSPECIFIED.,.F.,.F.,(4,2,2,2,2,4),
(1.7042897696175,1.87512847069981,2.05264042913481,2.23015238756981,2.46817281626155,
2.52556718991093),.UNSPECIFIED.);
#258=B_SPLINE_CURVE_WITH_KNOTS('',3,(#1281,#1282,#1283,#1284,#1285,#1286),
 .UNSPECIFIED.,.F.,.F.,(4,2,4),(2.14297515854341,2.44238950437768,2.55668239043981),
 .UNSPECIFIED.);
#259=B_SPLINE_CURVE_WITH_KNOTS('',3,(#1288,#1289,#1290,#1291,#1292,#1293),
 .UNSPECIFIED.,.F.,.F.,(4,2,4),(1.72926792664701,1.84356081270914,2.14297515854341),
 .UNSPECIFIED.);
#260=B_SPLINE_CURVE_WITH_KNOTS('',3,(#1297,#1298,#1299,#1300,#1301,#1302,
#1303,#1304,#1305,#1306,#1307,#1308),.UNSPECIFIED.,.F.,.F.,(4,2,2,2,2,4),
(1.72775244696534,1.78514682061473,2.02316724930646,2.20067920774146,2.37819116617646,
2.54902986725877),.UNSPECIFIED.);
#261=B_SPLINE_CURVE_WITH_KNOTS('',3,(#1315,#1316,#1317,#1318),
 .UNSPECIFIED.,.F.,.F.,(4,4),(2.31753869726019,2.31769479634041),
 .UNSPECIFIED.);
#262=B_SPLINE_CURVE_WITH_KNOTS('',3,(#1321,#1322,#1323,#1324),
 .UNSPECIFIED.,.F.,.F.,(4,4),(3.13963776116747,3.13979386024769),
 .UNSPECIFIED.);
#263=B_SPLINE_CURVE_WITH_KNOTS('',3,(#1327,#1328,#1329,#1330),
 .UNSPECIFIED.,.F.,.F.,(4,4),(2.72866627875394,2.82554122635051),
 .UNSPECIFIED.);
#264=B_SPLINE_CURVE_WITH_KNOTS('',3,(#1331,#1332,#1333,#1334),
 .UNSPECIFIED.,.F.,.F.,(4,4),(2.63179133115737,2.72866627875394),
 .UNSPECIFIED.);
#265=B_SPLINE_CURVE_WITH_KNOTS('',3,(#1342,#1343,#1344,#1345),
 .UNSPECIFIED.,.F.,.F.,(4,4),(5.35077488234375,5.35092315579001),
 .UNSPECIFIED.);
#266=B_SPLINE_CURVE_WITH_KNOTS('',3,(#1347,#1348,#1349,#1350),
 .UNSPECIFIED.,.F.,.F.,(4,4),(4.53056899497535,4.53071709327806),
 .UNSPECIFIED.);
#267=B_SPLINE_CURVE_WITH_KNOTS('',3,(#1353,#1354,#1355,#1356,#1357,#1358),
 .UNSPECIFIED.,.F.,.F.,(4,2,4),(4.8474988294788,4.87346551536047,5.03622125852923),
 .UNSPECIFIED.);
#268=B_SPLINE_CURVE_WITH_KNOTS('',3,(#1366,#1367,#1368,#1369),
 .UNSPECIFIED.,.F.,.F.,(4,4),(0.961698259403382,0.961846357706093),
 .UNSPECIFIED.);
#269=B_SPLINE_CURVE_WITH_KNOTS('',3,(#1371,#1372,#1373,#1374),
 .UNSPECIFIED.,.F.,.F.,(4,4),(0.141492196891432,0.141640470337696),
 .UNSPECIFIED.);
#270=B_SPLINE_CURVE_WITH_KNOTS('',3,(#1394,#1395,#1396,#1397,#1398,#1399),
 .UNSPECIFIED.,.F.,.F.,(4,2,4),(0.456194094152224,0.618949837320973,0.644916523202642),
 .UNSPECIFIED.);
#271=B_SPLINE_CURVE_WITH_KNOTS('',3,(#1411,#1412,#1413,#1414,#1415,#1416,
#1417,#1418,#1419,#1420,#1421,#1422,#1423,#1424),.UNSPECIFIED.,.F.,.F.,
(4,2,2,2,2,2,4),(2.04322665365196,2.29314443416253,2.54306221467309,3.04289777569422,
3.56467554149907,3.8255644244015,4.08645330730393),.UNSPECIFIED.);
#272=B_SPLINE_CURVE_WITH_KNOTS('',3,(#1426,#1427,#1428,#1429,#1430,#1431,
#1432,#1433,#1434,#1435,#1436,#1437,#1438,#1439,#1440,#1441,#1442,#1443,
#1444,#1445,#1446,#1447,#1448,#1449,#1450,#1451,#1452),.UNSPECIFIED.,.F.,
 .F.,(4,2,2,2,2,2,3,2,2,2,2,2,4),(6.12967996095589,6.37959774146645,6.62951552197702,
7.12935108299815,7.651128848803,7.91201773170543,8.17290661460786,8.43379549751028,
8.69468438041271,9.21646214621756,9.71629770723869,9.96621548774926,10.2161332682598),
 .UNSPECIFIED.);
#273=B_SPLINE_CURVE_WITH_KNOTS('',3,(#1453,#1454,#1455,#1456,#1457,#1458,
#1459,#1460,#1461,#1462,#1463,#1464,#1465,#1466),.UNSPECIFIED.,.F.,.F.,
(4,2,2,2,2,2,4),(4.08645330730393,4.34734219020635,4.60823107310878,5.13000883891363,
5.62984439993476,5.87976218044533,6.12967996095589),.UNSPECIFIED.);
#274=VERTEX_POINT('',#1004);
#275=VERTEX_POINT('',#1043);
#276=VERTEX_POINT('',#1047);
#277=VERTEX_POINT('',#1050);
#278=VERTEX_POINT('',#1089);
#279=VERTEX_POINT('',#1093);
#280=VERTEX_POINT('',#1096);
#281=VERTEX_POINT('',#1098);
#282=VERTEX_POINT('',#1139);
#283=VERTEX_POINT('',#1143);
#284=VERTEX_POINT('',#1145);
#285=VERTEX_POINT('',#1186);
#286=VERTEX_POINT('',#1190);
#287=VERTEX_POINT('',#1191);
#288=VERTEX_POINT('',#1193);
#289=VERTEX_POINT('',#1195);
#290=VERTEX_POINT('',#1199);
#291=VERTEX_POINT('',#1201);
#292=VERTEX_POINT('',#1205);
#293=VERTEX_POINT('',#1207);
#294=VERTEX_POINT('',#1217);
#295=VERTEX_POINT('',#1218);
#296=VERTEX_POINT('',#1220);
#297=VERTEX_POINT('',#1225);
#298=VERTEX_POINT('',#1226);
#299=VERTEX_POINT('',#1228);
#300=VERTEX_POINT('',#1235);
#301=VERTEX_POINT('',#1237);
#302=VERTEX_POINT('',#1244);
#303=VERTEX_POINT('',#1246);
#304=VERTEX_POINT('',#1256);
#305=VERTEX_POINT('',#1257);
#306=VERTEX_POINT('',#1261);
#307=VERTEX_POINT('',#1263);
#308=VERTEX_POINT('',#1265);
#309=VERTEX_POINT('',#1278);
#310=VERTEX_POINT('',#1280);
#311=VERTEX_POINT('',#1287);
#312=VERTEX_POINT('',#1294);
#313=VERTEX_POINT('',#1296);
#314=VERTEX_POINT('',#1311);
#315=VERTEX_POINT('',#1314);
#316=VERTEX_POINT('',#1319);
#317=VERTEX_POINT('',#1326);
#318=VERTEX_POINT('',#1336);
#319=VERTEX_POINT('',#1338);
#320=VERTEX_POINT('',#1340);
#321=VERTEX_POINT('',#1346);
#322=VERTEX_POINT('',#1360);
#323=VERTEX_POINT('',#1362);
#324=VERTEX_POINT('',#1364);
#325=VERTEX_POINT('',#1370);
#326=VERTEX_POINT('',#1383);
#327=VERTEX_POINT('',#1384);
#328=VERTEX_POINT('',#1386);
#329=VERTEX_POINT('',#1388);
#330=VERTEX_POINT('',#1401);
#331=VERTEX_POINT('',#1409);
#332=VERTEX_POINT('',#1410);
#333=VERTEX_POINT('',#1425);
#334=VERTEX_POINT('',#1470);
#335=VERTEX_POINT('',#1474);
#336=VERTEX_POINT('',#1478);
#337=EDGE_CURVE('',#274,#274,#250,.T.);
#338=EDGE_CURVE('',#274,#275,#200,.T.);
#339=EDGE_CURVE('',#275,#275,#152,.T.);
#340=EDGE_CURVE('',#276,#276,#153,.T.);
#341=EDGE_CURVE('',#277,#277,#251,.T.);
#342=EDGE_CURVE('',#277,#278,#201,.T.);
#343=EDGE_CURVE('',#278,#278,#154,.T.);
#344=EDGE_CURVE('',#279,#279,#155,.T.);
#345=EDGE_CURVE('',#280,#280,#156,.T.);
#346=EDGE_CURVE('',#280,#281,#202,.T.);
#347=EDGE_CURVE('',#281,#281,#252,.T.);
#348=EDGE_CURVE('',#276,#282,#203,.T.);
#349=EDGE_CURVE('',#282,#282,#157,.T.);
#350=EDGE_CURVE('',#283,#283,#158,.T.);
#351=EDGE_CURVE('',#283,#284,#204,.T.);
#352=EDGE_CURVE('',#284,#284,#253,.T.);
#353=EDGE_CURVE('',#279,#285,#205,.T.);
#354=EDGE_CURVE('',#285,#285,#159,.T.);
#355=EDGE_CURVE('',#286,#287,#206,.T.);
#356=EDGE_CURVE('',#286,#288,#207,.T.);
#357=EDGE_CURVE('',#289,#288,#208,.T.);
#358=EDGE_CURVE('',#287,#289,#209,.T.);
#359=EDGE_CURVE('',#290,#287,#160,.T.);
#360=EDGE_CURVE('',#291,#289,#161,.T.);
#361=EDGE_CURVE('',#290,#291,#210,.T.);
#362=EDGE_CURVE('',#292,#290,#211,.T.);
#363=EDGE_CURVE('',#293,#291,#212,.T.);
#364=EDGE_CURVE('',#292,#293,#213,.T.);
#365=EDGE_CURVE('',#292,#286,#162,.T.);
#366=EDGE_CURVE('',#288,#293,#163,.T.);
#367=EDGE_CURVE('',#294,#295,#164,.T.);
#368=EDGE_CURVE('',#295,#296,#165,.T.);
#369=EDGE_CURVE('',#296,#296,#166,.T.);
#370=EDGE_CURVE('',#295,#294,#167,.T.);
#371=EDGE_CURVE('',#297,#298,#168,.T.);
#372=EDGE_CURVE('',#299,#297,#254,.T.);
#373=EDGE_CURVE('',#300,#299,#169,.T.);
#374=EDGE_CURVE('',#301,#300,#255,.T.);
#375=EDGE_CURVE('',#302,#301,#170,.T.);
#376=EDGE_CURVE('',#303,#302,#256,.T.);
#377=EDGE_CURVE('',#298,#303,#171,.T.);
#378=EDGE_CURVE('',#298,#294,#214,.T.);
#379=EDGE_CURVE('',#304,#305,#172,.T.);
#380=EDGE_CURVE('',#305,#304,#173,.T.);
#381=EDGE_CURVE('',#305,#306,#215,.T.);
#382=EDGE_CURVE('',#307,#306,#174,.T.);
#383=EDGE_CURVE('',#308,#307,#257,.T.);
#384=EDGE_CURVE('',#309,#308,#175,.T.);
#385=EDGE_CURVE('',#310,#309,#258,.T.);
#386=EDGE_CURVE('',#311,#310,#259,.T.);
#387=EDGE_CURVE('',#312,#311,#176,.T.);
#388=EDGE_CURVE('',#313,#312,#260,.T.);
#389=EDGE_CURVE('',#306,#313,#177,.T.);
#390=EDGE_CURVE('',#314,#314,#178,.T.);
#391=EDGE_CURVE('',#314,#310,#216,.T.);
#392=EDGE_CURVE('',#315,#309,#261,.T.);
#393=EDGE_CURVE('',#316,#315,#179,.T.);
#394=EDGE_CURVE('',#311,#316,#262,.T.);
#395=EDGE_CURVE('',#317,#300,#263,.T.);
#396=EDGE_CURVE('',#301,#317,#264,.T.);
#397=EDGE_CURVE('',#318,#318,#180,.T.);
#398=EDGE_CURVE('',#318,#319,#217,.T.);
#399=EDGE_CURVE('',#320,#319,#181,.T.);
#400=EDGE_CURVE('',#313,#320,#265,.T.);
#401=EDGE_CURVE('',#321,#312,#266,.T.);
#402=EDGE_CURVE('',#319,#321,#182,.T.);
#403=EDGE_CURVE('',#299,#297,#267,.T.);
#404=EDGE_CURVE('',#322,#322,#183,.T.);
#405=EDGE_CURVE('',#322,#323,#218,.T.);
#406=EDGE_CURVE('',#324,#323,#184,.T.);
#407=EDGE_CURVE('',#308,#324,#268,.T.);
#408=EDGE_CURVE('',#325,#307,#269,.T.);
#409=EDGE_CURVE('',#323,#325,#185,.T.);
#410=EDGE_CURVE('',#315,#324,#186,.T.);
#411=EDGE_CURVE('',#325,#320,#187,.T.);
#412=EDGE_CURVE('',#321,#316,#188,.T.);
#413=EDGE_CURVE('',#326,#327,#189,.T.);
#414=EDGE_CURVE('',#327,#328,#190,.T.);
#415=EDGE_CURVE('',#328,#329,#191,.T.);
#416=EDGE_CURVE('',#329,#328,#192,.T.);
#417=EDGE_CURVE('',#327,#326,#193,.T.);
#418=EDGE_CURVE('',#317,#329,#219,.T.);
#419=EDGE_CURVE('',#303,#302,#270,.T.);
#420=EDGE_CURVE('',#330,#330,#194,.T.);
#421=EDGE_CURVE('',#330,#326,#220,.T.);
#422=EDGE_CURVE('',#304,#305,#195,.T.);
#423=EDGE_CURVE('',#305,#304,#196,.T.);
#424=EDGE_CURVE('',#331,#332,#271,.T.);
#425=EDGE_CURVE('',#333,#331,#272,.T.);
#426=EDGE_CURVE('',#332,#333,#273,.T.);
#427=EDGE_CURVE('',#332,#304,#221,.T.);
#428=EDGE_CURVE('',#334,#334,#197,.T.);
#429=EDGE_CURVE('',#334,#318,#222,.T.);
#430=EDGE_CURVE('',#335,#335,#198,.T.);
#431=EDGE_CURVE('',#335,#314,#223,.T.);
#432=EDGE_CURVE('',#336,#336,#199,.T.);
#433=EDGE_CURVE('',#336,#322,#224,.T.);
#434=ORIENTED_EDGE('',*,*,#337,.F.);
#435=ORIENTED_EDGE('',*,*,#338,.T.);
#436=ORIENTED_EDGE('',*,*,#339,.T.);
#437=ORIENTED_EDGE('',*,*,#338,.F.);
#438=ORIENTED_EDGE('',*,*,#339,.F.);
#439=ORIENTED_EDGE('',*,*,#340,.F.);
#440=ORIENTED_EDGE('',*,*,#341,.F.);
#441=ORIENTED_EDGE('',*,*,#342,.T.);
#442=ORIENTED_EDGE('',*,*,#343,.T.);
#443=ORIENTED_EDGE('',*,*,#342,.F.);
#444=ORIENTED_EDGE('',*,*,#343,.F.);
#445=ORIENTED_EDGE('',*,*,#344,.F.);
#446=ORIENTED_EDGE('',*,*,#345,.F.);
#447=ORIENTED_EDGE('',*,*,#346,.T.);
#448=ORIENTED_EDGE('',*,*,#347,.F.);
#449=ORIENTED_EDGE('',*,*,#346,.F.);
#450=ORIENTED_EDGE('',*,*,#340,.T.);
#451=ORIENTED_EDGE('',*,*,#348,.T.);
#452=ORIENTED_EDGE('',*,*,#349,.F.);
#453=ORIENTED_EDGE('',*,*,#348,.F.);
#454=ORIENTED_EDGE('',*,*,#350,.F.);
#455=ORIENTED_EDGE('',*,*,#351,.T.);
#456=ORIENTED_EDGE('',*,*,#352,.F.);
#457=ORIENTED_EDGE('',*,*,#351,.F.);
#458=ORIENTED_EDGE('',*,*,#344,.T.);
#459=ORIENTED_EDGE('',*,*,#353,.T.);
#460=ORIENTED_EDGE('',*,*,#354,.F.);
#461=ORIENTED_EDGE('',*,*,#353,.F.);
#462=ORIENTED_EDGE('',*,*,#355,.F.);
#463=ORIENTED_EDGE('',*,*,#356,.T.);
#464=ORIENTED_EDGE('',*,*,#357,.F.);
#465=ORIENTED_EDGE('',*,*,#358,.F.);
#466=ORIENTED_EDGE('',*,*,#349,.T.);
#467=ORIENTED_EDGE('',*,*,#354,.T.);
#468=ORIENTED_EDGE('',*,*,#359,.T.);
#469=ORIENTED_EDGE('',*,*,#358,.T.);
#470=ORIENTED_EDGE('',*,*,#360,.F.);
#471=ORIENTED_EDGE('',*,*,#361,.F.);
#472=ORIENTED_EDGE('',*,*,#337,.T.);
#473=ORIENTED_EDGE('',*,*,#341,.T.);
#474=ORIENTED_EDGE('',*,*,#347,.T.);
#475=ORIENTED_EDGE('',*,*,#352,.T.);
#476=ORIENTED_EDGE('',*,*,#362,.T.);
#477=ORIENTED_EDGE('',*,*,#361,.T.);
#478=ORIENTED_EDGE('',*,*,#363,.F.);
#479=ORIENTED_EDGE('',*,*,#364,.F.);
#480=ORIENTED_EDGE('',*,*,#345,.T.);
#481=ORIENTED_EDGE('',*,*,#350,.T.);
#482=ORIENTED_EDGE('',*,*,#365,.F.);
#483=ORIENTED_EDGE('',*,*,#364,.T.);
#484=ORIENTED_EDGE('',*,*,#366,.F.);
#485=ORIENTED_EDGE('',*,*,#356,.F.);
#486=ORIENTED_EDGE('',*,*,#366,.T.);
#487=ORIENTED_EDGE('',*,*,#363,.T.);
#488=ORIENTED_EDGE('',*,*,#360,.T.);
#489=ORIENTED_EDGE('',*,*,#357,.T.);
#490=ORIENTED_EDGE('',*,*,#365,.T.);
#491=ORIENTED_EDGE('',*,*,#355,.T.);
#492=ORIENTED_EDGE('',*,*,#359,.F.);
#493=ORIENTED_EDGE('',*,*,#362,.F.);
#494=ORIENTED_EDGE('',*,*,#367,.T.);
#495=ORIENTED_EDGE('',*,*,#368,.T.);
#496=ORIENTED_EDGE('',*,*,#369,.T.);
#497=ORIENTED_EDGE('',*,*,#368,.F.);
#498=ORIENTED_EDGE('',*,*,#370,.T.);
#499=ORIENTED_EDGE('',*,*,#371,.F.);
#500=ORIENTED_EDGE('',*,*,#372,.F.);
#501=ORIENTED_EDGE('',*,*,#373,.F.);
#502=ORIENTED_EDGE('',*,*,#374,.F.);
#503=ORIENTED_EDGE('',*,*,#375,.F.);
#504=ORIENTED_EDGE('',*,*,#376,.F.);
#505=ORIENTED_EDGE('',*,*,#377,.F.);
#506=ORIENTED_EDGE('',*,*,#378,.T.);
#507=ORIENTED_EDGE('',*,*,#370,.F.);
#508=ORIENTED_EDGE('',*,*,#367,.F.);
#509=ORIENTED_EDGE('',*,*,#378,.F.);
#510=ORIENTED_EDGE('',*,*,#369,.F.);
#511=ORIENTED_EDGE('',*,*,#379,.T.);
#512=ORIENTED_EDGE('',*,*,#380,.T.);
#513=ORIENTED_EDGE('',*,*,#379,.F.);
#514=ORIENTED_EDGE('',*,*,#380,.F.);
#515=ORIENTED_EDGE('',*,*,#381,.T.);
#516=ORIENTED_EDGE('',*,*,#382,.F.);
#517=ORIENTED_EDGE('',*,*,#383,.F.);
#518=ORIENTED_EDGE('',*,*,#384,.F.);
#519=ORIENTED_EDGE('',*,*,#385,.F.);
#520=ORIENTED_EDGE('',*,*,#386,.F.);
#521=ORIENTED_EDGE('',*,*,#387,.F.);
#522=ORIENTED_EDGE('',*,*,#388,.F.);
#523=ORIENTED_EDGE('',*,*,#389,.F.);
#524=ORIENTED_EDGE('',*,*,#381,.F.);
#525=ORIENTED_EDGE('',*,*,#390,.F.);
#526=ORIENTED_EDGE('',*,*,#391,.T.);
#527=ORIENTED_EDGE('',*,*,#385,.T.);
#528=ORIENTED_EDGE('',*,*,#392,.F.);
#529=ORIENTED_EDGE('',*,*,#393,.F.);
#530=ORIENTED_EDGE('',*,*,#394,.F.);
#531=ORIENTED_EDGE('',*,*,#386,.T.);
#532=ORIENTED_EDGE('',*,*,#391,.F.);
#533=ORIENTED_EDGE('',*,*,#374,.T.);
#534=ORIENTED_EDGE('',*,*,#395,.F.);
#535=ORIENTED_EDGE('',*,*,#396,.F.);
#536=ORIENTED_EDGE('',*,*,#397,.F.);
#537=ORIENTED_EDGE('',*,*,#398,.T.);
#538=ORIENTED_EDGE('',*,*,#399,.F.);
#539=ORIENTED_EDGE('',*,*,#400,.F.);
#540=ORIENTED_EDGE('',*,*,#388,.T.);
#541=ORIENTED_EDGE('',*,*,#401,.F.);
#542=ORIENTED_EDGE('',*,*,#402,.F.);
#543=ORIENTED_EDGE('',*,*,#398,.F.);
#544=ORIENTED_EDGE('',*,*,#372,.T.);
#545=ORIENTED_EDGE('',*,*,#403,.F.);
#546=ORIENTED_EDGE('',*,*,#404,.F.);
#547=ORIENTED_EDGE('',*,*,#405,.T.);
#548=ORIENTED_EDGE('',*,*,#406,.F.);
#549=ORIENTED_EDGE('',*,*,#407,.F.);
#550=ORIENTED_EDGE('',*,*,#383,.T.);
#551=ORIENTED_EDGE('',*,*,#408,.F.);
#552=ORIENTED_EDGE('',*,*,#409,.F.);
#553=ORIENTED_EDGE('',*,*,#405,.F.);
#554=ORIENTED_EDGE('',*,*,#384,.T.);
#555=ORIENTED_EDGE('',*,*,#407,.T.);
#556=ORIENTED_EDGE('',*,*,#410,.F.);
#557=ORIENTED_EDGE('',*,*,#392,.T.);
#558=ORIENTED_EDGE('',*,*,#382,.T.);
#559=ORIENTED_EDGE('',*,*,#389,.T.);
#560=ORIENTED_EDGE('',*,*,#400,.T.);
#561=ORIENTED_EDGE('',*,*,#411,.F.);
#562=ORIENTED_EDGE('',*,*,#408,.T.);
#563=ORIENTED_EDGE('',*,*,#387,.T.);
#564=ORIENTED_EDGE('',*,*,#394,.T.);
#565=ORIENTED_EDGE('',*,*,#412,.F.);
#566=ORIENTED_EDGE('',*,*,#401,.T.);
#567=ORIENTED_EDGE('',*,*,#413,.T.);
#568=ORIENTED_EDGE('',*,*,#414,.T.);
#569=ORIENTED_EDGE('',*,*,#415,.T.);
#570=ORIENTED_EDGE('',*,*,#416,.T.);
#571=ORIENTED_EDGE('',*,*,#414,.F.);
#572=ORIENTED_EDGE('',*,*,#417,.T.);
#573=ORIENTED_EDGE('',*,*,#375,.T.);
#574=ORIENTED_EDGE('',*,*,#396,.T.);
#575=ORIENTED_EDGE('',*,*,#418,.T.);
#576=ORIENTED_EDGE('',*,*,#415,.F.);
#577=ORIENTED_EDGE('',*,*,#416,.F.);
#578=ORIENTED_EDGE('',*,*,#418,.F.);
#579=ORIENTED_EDGE('',*,*,#395,.T.);
#580=ORIENTED_EDGE('',*,*,#373,.T.);
#581=ORIENTED_EDGE('',*,*,#403,.T.);
#582=ORIENTED_EDGE('',*,*,#371,.T.);
#583=ORIENTED_EDGE('',*,*,#377,.T.);
#584=ORIENTED_EDGE('',*,*,#419,.T.);
#585=ORIENTED_EDGE('',*,*,#420,.F.);
#586=ORIENTED_EDGE('',*,*,#421,.T.);
#587=ORIENTED_EDGE('',*,*,#417,.F.);
#588=ORIENTED_EDGE('',*,*,#413,.F.);
#589=ORIENTED_EDGE('',*,*,#421,.F.);
#590=ORIENTED_EDGE('',*,*,#376,.T.);
#591=ORIENTED_EDGE('',*,*,#419,.F.);
#592=ORIENTED_EDGE('',*,*,#422,.T.);
#593=ORIENTED_EDGE('',*,*,#423,.T.);
#594=ORIENTED_EDGE('',*,*,#393,.T.);
#595=ORIENTED_EDGE('',*,*,#410,.T.);
#596=ORIENTED_EDGE('',*,*,#406,.T.);
#597=ORIENTED_EDGE('',*,*,#409,.T.);
#598=ORIENTED_EDGE('',*,*,#411,.T.);
#599=ORIENTED_EDGE('',*,*,#399,.T.);
#600=ORIENTED_EDGE('',*,*,#402,.T.);
#601=ORIENTED_EDGE('',*,*,#412,.T.);
#602=ORIENTED_EDGE('',*,*,#424,.F.);
#603=ORIENTED_EDGE('',*,*,#425,.F.);
#604=ORIENTED_EDGE('',*,*,#426,.F.);
#605=ORIENTED_EDGE('',*,*,#425,.T.);
#606=ORIENTED_EDGE('',*,*,#424,.T.);
#607=ORIENTED_EDGE('',*,*,#427,.T.);
#608=ORIENTED_EDGE('',*,*,#423,.F.);
#609=ORIENTED_EDGE('',*,*,#422,.F.);
#610=ORIENTED_EDGE('',*,*,#427,.F.);
#611=ORIENTED_EDGE('',*,*,#426,.T.);
#612=ORIENTED_EDGE('',*,*,#428,.F.);
#613=ORIENTED_EDGE('',*,*,#429,.T.);
#614=ORIENTED_EDGE('',*,*,#397,.T.);
#615=ORIENTED_EDGE('',*,*,#429,.F.);
#616=ORIENTED_EDGE('',*,*,#430,.F.);
#617=ORIENTED_EDGE('',*,*,#431,.T.);
#618=ORIENTED_EDGE('',*,*,#390,.T.);
#619=ORIENTED_EDGE('',*,*,#431,.F.);
#620=ORIENTED_EDGE('',*,*,#432,.F.);
#621=ORIENTED_EDGE('',*,*,#433,.T.);
#622=ORIENTED_EDGE('',*,*,#404,.T.);
#623=ORIENTED_EDGE('',*,*,#433,.F.);
#624=ORIENTED_EDGE('',*,*,#420,.T.);
#625=ORIENTED_EDGE('',*,*,#432,.T.);
#626=ORIENTED_EDGE('',*,*,#430,.T.);
#627=ORIENTED_EDGE('',*,*,#428,.T.);
#628=CYLINDRICAL_SURFACE('',#708,3.25);
#629=CYLINDRICAL_SURFACE('',#712,3.25);
#630=CYLINDRICAL_SURFACE('',#716,1.5);
#631=CYLINDRICAL_SURFACE('',#718,1.5);
#632=CYLINDRICAL_SURFACE('',#720,1.5);
#633=CYLINDRICAL_SURFACE('',#722,1.5);
#634=CYLINDRICAL_SURFACE('',#725,14.925);
#635=CYLINDRICAL_SURFACE('',#729,6.925);
#636=CYLINDRICAL_SURFACE('',#740,13.);
#637=CYLINDRICAL_SURFACE('',#748,12.5);
#638=CYLINDRICAL_SURFACE('',#779,16.061);
#639=CYLINDRICAL_SURFACE('',#785,14.925);
#640=CYLINDRICAL_SURFACE('',#786,12.5);
#641=CYLINDRICAL_SURFACE('',#787,2.);
#642=CYLINDRICAL_SURFACE('',#789,2.);
#643=CYLINDRICAL_SURFACE('',#791,2.);
#644=ADVANCED_FACE('',(#63),#628,.F.);
#645=ADVANCED_FACE('',(#64,#39),#54,.T.);
#646=ADVANCED_FACE('',(#65),#629,.F.);
#647=ADVANCED_FACE('',(#66,#40),#55,.T.);
#648=ADVANCED_FACE('',(#67),#630,.F.);
#649=ADVANCED_FACE('',(#68),#631,.F.);
#650=ADVANCED_FACE('',(#69),#632,.F.);
#651=ADVANCED_FACE('',(#70),#633,.F.);
#652=ADVANCED_FACE('',(#71,#41,#42),#56,.T.);
#653=ADVANCED_FACE('',(#72,#43,#44,#45,#46),#634,.T.);
#654=ADVANCED_FACE('',(#73,#47,#48),#57,.T.);
#655=ADVANCED_FACE('',(#74),#635,.F.);
#656=ADVANCED_FACE('',(#75),#58,.T.);
#657=ADVANCED_FACE('',(#76),#59,.F.);
#658=ADVANCED_FACE('',(#77),#29,.T.);
#659=ADVANCED_FACE('',(#78),#636,.T.);
#660=ADVANCED_FACE('',(#79,#49),#60,.F.);
#661=ADVANCED_FACE('',(#80),#637,.F.);
#662=ADVANCED_FACE('',(#81),#19,.F.);
#663=ADVANCED_FACE('',(#82),#20,.F.);
#664=ADVANCED_FACE('',(#83),#21,.F.);
#665=ADVANCED_FACE('',(#84),#22,.F.);
#666=ADVANCED_FACE('',(#85),#23,.F.);
#667=ADVANCED_FACE('',(#86),#24,.T.);
#668=ADVANCED_FACE('',(#87),#25,.T.);
#669=ADVANCED_FACE('',(#88),#26,.T.);
#670=ADVANCED_FACE('',(#89),#30,.T.);
#671=ADVANCED_FACE('',(#90),#27,.T.);
#672=ADVANCED_FACE('',(#91),#638,.T.);
#673=ADVANCED_FACE('',(#92),#28,.F.);
#674=ADVANCED_FACE('',(#93,#50),#61,.T.);
#675=ADVANCED_FACE('',(#94),#639,.F.);
#676=ADVANCED_FACE('',(#95),#640,.T.);
#677=ADVANCED_FACE('',(#96),#641,.F.);
#678=ADVANCED_FACE('',(#97),#642,.F.);
#679=ADVANCED_FACE('',(#98),#643,.F.);
#680=ADVANCED_FACE('',(#99,#51,#52,#53),#62,.T.);
#681=CLOSED_SHELL('',(#644,#645,#646,#647,#648,#649,#650,#651,#652,#653,
#654,#655,#656,#657));
#682=CLOSED_SHELL('',(#658,#659,#660,#661,#662,#663,#664,#665,#666,#667,
#668,#669,#670,#671,#672,#673,#674,#675,#676,#677,#678,#679,#680));
#683=DERIVED_UNIT_ELEMENT(#687,1.);
#684=DERIVED_UNIT_ELEMENT(#1493,-3.);
#685=DERIVED_UNIT_ELEMENT(#687,1.);
#686=DERIVED_UNIT_ELEMENT(#1493,-3.);
#687=(
MASS_UNIT()
NAMED_UNIT(*)
SI_UNIT(.KILO.,.GRAM.)
);
#688=DERIVED_UNIT((#683,#684));
#689=DERIVED_UNIT((#685,#686));
#690=MEASURE_REPRESENTATION_ITEM('density measure',
POSITIVE_RATIO_MEASURE(7850.),#688);
#691=MEASURE_REPRESENTATION_ITEM('density measure',
POSITIVE_RATIO_MEASURE(7850.),#689);
#692=PROPERTY_DEFINITION_REPRESENTATION(#702,#696);
#693=PROPERTY_DEFINITION_REPRESENTATION(#703,#697);
#694=PROPERTY_DEFINITION_REPRESENTATION(#704,#698);
#695=PROPERTY_DEFINITION_REPRESENTATION(#705,#699);
#696=REPRESENTATION('material name',(#700),#1489);
#697=REPRESENTATION('density',(#690),#1489);
#698=REPRESENTATION('material name',(#701),#1490);
#699=REPRESENTATION('density',(#691),#1490);
#700=DESCRIPTIVE_REPRESENTATION_ITEM('Steel','Steel');
#701=DESCRIPTIVE_REPRESENTATION_ITEM('Steel','Steel');
#702=PROPERTY_DEFINITION('material property','material name',#1509);
#703=PROPERTY_DEFINITION('material property','density of part',#1509);
#704=PROPERTY_DEFINITION('material property','material name',#1510);
#705=PROPERTY_DEFINITION('material property','density of part',#1510);
#706=AXIS2_PLACEMENT_3D('',#1001,#796,#797);
#707=AXIS2_PLACEMENT_3D('',#1002,#798,#799);
#708=AXIS2_PLACEMENT_3D('',#1003,#800,#801);
#709=AXIS2_PLACEMENT_3D('',#1045,#803,#804);
#710=AXIS2_PLACEMENT_3D('',#1046,#805,#806);
#711=AXIS2_PLACEMENT_3D('',#1048,#807,#808);
#712=AXIS2_PLACEMENT_3D('',#1049,#809,#810);
#713=AXIS2_PLACEMENT_3D('',#1091,#812,#813);
#714=AXIS2_PLACEMENT_3D('',#1092,#814,#815);
#715=AXIS2_PLACEMENT_3D('',#1094,#816,#817);
#716=AXIS2_PLACEMENT_3D('',#1095,#818,#819);
#717=AXIS2_PLACEMENT_3D('',#1097,#820,#821);
#718=AXIS2_PLACEMENT_3D('',#1138,#823,#824);
#719=AXIS2_PLACEMENT_3D('',#1141,#826,#827);
#720=AXIS2_PLACEMENT_3D('',#1142,#828,#829);
#721=AXIS2_PLACEMENT_3D('',#1144,#830,#831);
#722=AXIS2_PLACEMENT_3D('',#1185,#833,#834);
#723=AXIS2_PLACEMENT_3D('',#1188,#836,#837);
#724=AXIS2_PLACEMENT_3D('',#1189,#838,#839);
#725=AXIS2_PLACEMENT_3D('',#1198,#844,#845);
#726=AXIS2_PLACEMENT_3D('',#1200,#846,#847);
#727=AXIS2_PLACEMENT_3D('',#1202,#848,#849);
#728=AXIS2_PLACEMENT_3D('',#1204,#851,#852);
#729=AXIS2_PLACEMENT_3D('',#1210,#856,#857);
#730=AXIS2_PLACEMENT_3D('',#1211,#858,#859);
#731=AXIS2_PLACEMENT_3D('',#1212,#860,#861);
#732=AXIS2_PLACEMENT_3D('',#1213,#862,#863);
#733=AXIS2_PLACEMENT_3D('',#1214,#864,#865);
#734=AXIS2_PLACEMENT_3D('',#1215,#866,#867);
#735=AXIS2_PLACEMENT_3D('',#1216,#868,#869);
#736=AXIS2_PLACEMENT_3D('',#1219,#870,#871);
#737=AXIS2_PLACEMENT_3D('',#1221,#872,#873);
#738=AXIS2_PLACEMENT_3D('',#1222,#874,#875);
#739=AXIS2_PLACEMENT_3D('',#1223,#876,#877);
#740=AXIS2_PLACEMENT_3D('',#1224,#878,#879);
#741=AXIS2_PLACEMENT_3D('',#1227,#880,#881);
#742=AXIS2_PLACEMENT_3D('',#1236,#882,#883);
#743=AXIS2_PLACEMENT_3D('',#1245,#884,#885);
#744=AXIS2_PLACEMENT_3D('',#1253,#886,#887);
#745=AXIS2_PLACEMENT_3D('',#1255,#889,#890);
#746=AXIS2_PLACEMENT_3D('',#1258,#891,#892);
#747=AXIS2_PLACEMENT_3D('',#1259,#893,#894);
#748=AXIS2_PLACEMENT_3D('',#1260,#895,#896);
#749=AXIS2_PLACEMENT_3D('',#1264,#898,#899);
#750=AXIS2_PLACEMENT_3D('',#1279,#900,#901);
#751=AXIS2_PLACEMENT_3D('',#1295,#902,#903);
#752=AXIS2_PLACEMENT_3D('',#1309,#904,#905);
#753=AXIS2_PLACEMENT_3D('',#1310,#906,#907);
#754=AXIS2_PLACEMENT_3D('',#1312,#908,#909);
#755=AXIS2_PLACEMENT_3D('',#1320,#911,#912);
#756=AXIS2_PLACEMENT_3D('',#1325,#913,#914);
#757=AXIS2_PLACEMENT_3D('',#1335,#915,#916);
#758=AXIS2_PLACEMENT_3D('',#1337,#917,#918);
#759=AXIS2_PLACEMENT_3D('',#1341,#920,#921);
#760=AXIS2_PLACEMENT_3D('',#1351,#922,#923);
#761=AXIS2_PLACEMENT_3D('',#1352,#924,#925);
#762=AXIS2_PLACEMENT_3D('',#1359,#926,#927);
#763=AXIS2_PLACEMENT_3D('',#1361,#928,#929);
#764=AXIS2_PLACEMENT_3D('',#1365,#931,#932);
#765=AXIS2_PLACEMENT_3D('',#1375,#933,#934);
#766=AXIS2_PLACEMENT_3D('',#1376,#935,#936);
#767=AXIS2_PLACEMENT_3D('',#1377,#937,#938);
#768=AXIS2_PLACEMENT_3D('',#1378,#939,#940);
#769=AXIS2_PLACEMENT_3D('',#1379,#941,#942);
#770=AXIS2_PLACEMENT_3D('',#1380,#943,#944);
#771=AXIS2_PLACEMENT_3D('',#1381,#945,#946);
#772=AXIS2_PLACEMENT_3D('',#1382,#947,#948);
#773=AXIS2_PLACEMENT_3D('',#1385,#949,#950);
#774=AXIS2_PLACEMENT_3D('',#1387,#951,#952);
#775=AXIS2_PLACEMENT_3D('',#1389,#953,#954);
#776=AXIS2_PLACEMENT_3D('',#1390,#955,#956);
#777=AXIS2_PLACEMENT_3D('',#1391,#957,#958);
#778=AXIS2_PLACEMENT_3D('',#1392,#959,#960);
#779=AXIS2_PLACEMENT_3D('',#1400,#962,#963);
#780=AXIS2_PLACEMENT_3D('',#1402,#964,#965);
#781=AXIS2_PLACEMENT_3D('',#1404,#967,#968);
#782=AXIS2_PLACEMENT_3D('',#1405,#969,#970);
#783=AXIS2_PLACEMENT_3D('',#1406,#971,#972);
#784=AXIS2_PLACEMENT_3D('',#1407,#973,#974);
#785=AXIS2_PLACEMENT_3D('',#1408,#975,#976);
#786=AXIS2_PLACEMENT_3D('',#1467,#977,#978);
#787=AXIS2_PLACEMENT_3D('',#1469,#980,#981);
#788=AXIS2_PLACEMENT_3D('',#1471,#982,#983);
#789=AXIS2_PLACEMENT_3D('',#1473,#985,#986);
#790=AXIS2_PLACEMENT_3D('',#1475,#987,#988);
#791=AXIS2_PLACEMENT_3D('',#1477,#990,#991);
#792=AXIS2_PLACEMENT_3D('',#1479,#992,#993);
#793=AXIS2_PLACEMENT_3D('',#1481,#995,#996);
#794=AXIS2_PLACEMENT_3D('',#1482,#997,#998);
#795=AXIS2_PLACEMENT_3D('',#1483,#999,#1000);
#796=DIRECTION('axis',(0.,0.,1.));
#797=DIRECTION('refdir',(1.,0.,0.));
#798=DIRECTION('axis',(0.,0.,1.));
#799=DIRECTION('refdir',(1.,0.,0.));
#800=DIRECTION('center_axis',(1.,2.01858731750028E-16,0.));
#801=DIRECTION('ref_axis',(2.01858731750028E-16,-1.,0.));
#802=DIRECTION('',(1.,2.01858731750028E-16,0.));
#803=DIRECTION('center_axis',(1.,1.60812264967664E-16,0.));
#804=DIRECTION('ref_axis',(1.60812264967664E-16,-1.,0.));
#805=DIRECTION('center_axis',(-1.,-1.60812264967664E-16,0.));
#806=DIRECTION('ref_axis',(1.60812264967664E-16,-1.,0.));
#807=DIRECTION('center_axis',(-1.,-1.60812264967664E-16,0.));
#808=DIRECTION('ref_axis',(1.53134210293125E-16,-1.,0.));
#809=DIRECTION('center_axis',(1.,2.01858731750028E-16,0.));
#810=DIRECTION('ref_axis',(2.01858731750028E-16,-1.,0.));
#811=DIRECTION('',(1.,2.01858731750028E-16,0.));
#812=DIRECTION('center_axis',(1.,1.60812264967664E-16,0.));
#813=DIRECTION('ref_axis',(1.60812264967664E-16,-1.,0.));
#814=DIRECTION('center_axis',(-1.,-1.60812264967664E-16,0.));
#815=DIRECTION('ref_axis',(1.60812264967664E-16,-1.,0.));
#816=DIRECTION('center_axis',(-1.,-1.60812264967664E-16,0.));
#817=DIRECTION('ref_axis',(1.53134210293125E-16,-1.,0.));
#818=DIRECTION('center_axis',(1.,1.53134210293125E-16,0.));
#819=DIRECTION('ref_axis',(1.53134210293125E-16,-1.,0.));
#820=DIRECTION('center_axis',(1.,0.,0.));
#821=DIRECTION('ref_axis',(1.53134210293125E-16,-1.,0.));
#822=DIRECTION('',(1.,1.53134210293125E-16,0.));
#823=DIRECTION('center_axis',(1.,1.53134210293125E-16,0.));
#824=DIRECTION('ref_axis',(1.53134210293125E-16,-1.,0.));
#825=DIRECTION('',(1.,1.53134210293125E-16,0.));
#826=DIRECTION('center_axis',(-1.,0.,0.));
#827=DIRECTION('ref_axis',(1.53134210293125E-16,-1.,0.));
#828=DIRECTION('center_axis',(1.,1.53134210293125E-16,0.));
#829=DIRECTION('ref_axis',(1.53134210293125E-16,-1.,0.));
#830=DIRECTION('center_axis',(1.,0.,0.));
#831=DIRECTION('ref_axis',(1.53134210293125E-16,-1.,0.));
#832=DIRECTION('',(1.,1.53134210293125E-16,0.));
#833=DIRECTION('center_axis',(1.,1.53134210293125E-16,0.));
#834=DIRECTION('ref_axis',(1.53134210293125E-16,-1.,0.));
#835=DIRECTION('',(1.,1.53134210293125E-16,0.));
#836=DIRECTION('center_axis',(-1.,0.,0.));
#837=DIRECTION('ref_axis',(1.53134210293125E-16,-1.,0.));
#838=DIRECTION('center_axis',(1.,0.,0.));
#839=DIRECTION('ref_axis',(0.,1.,0.));
#840=DIRECTION('',(0.,-1.,0.));
#841=DIRECTION('',(0.,0.,1.));
#842=DIRECTION('',(0.,1.,0.));
#843=DIRECTION('',(0.,0.,1.));
#844=DIRECTION('center_axis',(0.,0.,1.));
#845=DIRECTION('ref_axis',(6.12323399573677E-17,1.,0.));
#846=DIRECTION('center_axis',(0.,0.,1.));
#847=DIRECTION('ref_axis',(1.,0.,0.));
#848=DIRECTION('center_axis',(0.,0.,1.));
#849=DIRECTION('ref_axis',(1.,0.,0.));
#850=DIRECTION('',(0.,0.,1.));
#851=DIRECTION('center_axis',(-1.,0.,0.));
#852=DIRECTION('ref_axis',(0.,-1.,0.));
#853=DIRECTION('',(0.,-1.,0.));
#854=DIRECTION('',(0.,-1.,0.));
#855=DIRECTION('',(0.,0.,1.));
#856=DIRECTION('center_axis',(0.,0.,1.));
#857=DIRECTION('ref_axis',(2.83276944882399E-16,1.,0.));
#858=DIRECTION('center_axis',(0.,0.,1.));
#859=DIRECTION('ref_axis',(1.,0.,0.));
#860=DIRECTION('center_axis',(0.,0.,-1.));
#861=DIRECTION('ref_axis',(1.,0.,0.));
#862=DIRECTION('center_axis',(0.,0.,1.));
#863=DIRECTION('ref_axis',(1.,0.,0.));
#864=DIRECTION('center_axis',(0.,0.,1.));
#865=DIRECTION('ref_axis',(1.,0.,0.));
#866=DIRECTION('axis',(0.,0.,1.));
#867=DIRECTION('refdir',(1.,0.,0.));
#868=DIRECTION('center_axis',(0.,1.,0.));
#869=DIRECTION('ref_axis',(0.,0.,1.));
#870=DIRECTION('center_axis',(0.,-1.,0.));
#871=DIRECTION('ref_axis',(-1.,0.,0.));
#872=DIRECTION('center_axis',(-1.,0.,1.22464679914735E-16));
#873=DIRECTION('ref_axis',(-1.22464679914735E-16,0.,-1.));
#874=DIRECTION('center_axis',(0.,1.,0.));
#875=DIRECTION('ref_axis',(-1.,0.,0.));
#876=DIRECTION('center_axis',(0.,-1.,0.));
#877=DIRECTION('ref_axis',(-1.,0.,0.));
#878=DIRECTION('center_axis',(0.,1.,0.));
#879=DIRECTION('ref_axis',(-1.,0.,0.));
#880=DIRECTION('center_axis',(0.,1.,0.));
#881=DIRECTION('ref_axis',(-1.,0.,0.));
#882=DIRECTION('center_axis',(0.,1.,0.));
#883=DIRECTION('ref_axis',(-1.,0.,0.));
#884=DIRECTION('center_axis',(0.,1.,0.));
#885=DIRECTION('ref_axis',(-1.,0.,0.));
#886=DIRECTION('center_axis',(0.,1.,0.));
#887=DIRECTION('ref_axis',(-1.,0.,0.));
#888=DIRECTION('',(0.,-1.,0.));
#889=DIRECTION('center_axis',(0.,1.,0.));
#890=DIRECTION('ref_axis',(0.,0.,1.));
#891=DIRECTION('center_axis',(0.,1.,0.));
#892=DIRECTION('ref_axis',(1.,0.,0.));
#893=DIRECTION('center_axis',(0.,1.,0.));
#894=DIRECTION('ref_axis',(1.,0.,0.));
#895=DIRECTION('center_axis',(0.,1.,0.));
#896=DIRECTION('ref_axis',(-1.,0.,0.));
#897=DIRECTION('',(0.,1.,0.));
#898=DIRECTION('center_axis',(0.,-1.,0.));
#899=DIRECTION('ref_axis',(-1.,0.,0.));
#900=DIRECTION('center_axis',(0.,-1.,0.));
#901=DIRECTION('ref_axis',(-1.,0.,0.));
#902=DIRECTION('center_axis',(0.,-1.,0.));
#903=DIRECTION('ref_axis',(-1.,0.,0.));
#904=DIRECTION('center_axis',(0.,-1.,0.));
#905=DIRECTION('ref_axis',(-1.,0.,0.));
#906=DIRECTION('center_axis',(0.,-1.,0.));
#907=DIRECTION('ref_axis',(1.,0.,0.));
#908=DIRECTION('center_axis',(0.,-1.,0.));
#909=DIRECTION('ref_axis',(1.,0.,0.));
#910=DIRECTION('',(-0.664969688239463,-0.746870345992335,-8.14353000232472E-17));
#911=DIRECTION('center_axis',(0.,1.,0.));
#912=DIRECTION('ref_axis',(1.,0.,0.));
#913=DIRECTION('center_axis',(0.,-1.,0.));
#914=DIRECTION('ref_axis',(-1.,0.,-1.22464679914735E-16));
#915=DIRECTION('center_axis',(0.,-1.,0.));
#916=DIRECTION('ref_axis',(1.,0.,0.));
#917=DIRECTION('center_axis',(0.,-1.,0.));
#918=DIRECTION('ref_axis',(1.,0.,0.));
#919=DIRECTION('',(-0.664969688239463,-0.746870345992335,-8.14353000232472E-17));
#920=DIRECTION('center_axis',(0.,1.,0.));
#921=DIRECTION('ref_axis',(1.,0.,0.));
#922=DIRECTION('center_axis',(0.,1.,0.));
#923=DIRECTION('ref_axis',(1.,0.,0.));
#924=DIRECTION('center_axis',(0.,-1.,0.));
#925=DIRECTION('ref_axis',(1.,0.,0.));
#926=DIRECTION('center_axis',(0.,-1.,0.));
#927=DIRECTION('ref_axis',(1.,0.,0.));
#928=DIRECTION('center_axis',(0.,-1.,0.));
#929=DIRECTION('ref_axis',(1.,0.,0.));
#930=DIRECTION('',(-0.664969688239463,-0.746870345992335,-8.14353000232472E-17));
#931=DIRECTION('center_axis',(0.,1.,0.));
#932=DIRECTION('ref_axis',(1.,0.,0.));
#933=DIRECTION('center_axis',(0.,1.,0.));
#934=DIRECTION('ref_axis',(1.,0.,0.));
#935=DIRECTION('center_axis',(0.,1.,0.));
#936=DIRECTION('ref_axis',(1.,0.,0.));
#937=DIRECTION('center_axis',(0.,-1.,0.));
#938=DIRECTION('ref_axis',(1.,0.,0.));
#939=DIRECTION('center_axis',(0.,1.,0.));
#940=DIRECTION('ref_axis',(1.,0.,0.));
#941=DIRECTION('center_axis',(0.,-1.,0.));
#942=DIRECTION('ref_axis',(1.,0.,0.));
#943=DIRECTION('center_axis',(0.,1.,0.));
#944=DIRECTION('ref_axis',(1.,0.,0.));
#945=DIRECTION('center_axis',(0.,-1.,0.));
#946=DIRECTION('ref_axis',(1.,0.,0.));
#947=DIRECTION('center_axis',(0.,1.,0.));
#948=DIRECTION('ref_axis',(0.,0.,1.));
#949=DIRECTION('center_axis',(0.,-1.,0.));
#950=DIRECTION('ref_axis',(1.,0.,0.));
#951=DIRECTION('center_axis',(-1.,0.,1.22464679914735E-16));
#952=DIRECTION('ref_axis',(-1.22464679914735E-16,0.,-1.));
#953=DIRECTION('center_axis',(0.,1.,0.));
#954=DIRECTION('ref_axis',(1.,0.,0.));
#955=DIRECTION('center_axis',(0.,1.,0.));
#956=DIRECTION('ref_axis',(1.,0.,0.));
#957=DIRECTION('center_axis',(0.,-1.,0.));
#958=DIRECTION('ref_axis',(1.,0.,0.));
#959=DIRECTION('center_axis',(0.,1.,0.));
#960=DIRECTION('ref_axis',(1.,0.,0.));
#961=DIRECTION('',(-0.664969688239464,0.746870345992335,-8.14353000232472E-17));
#962=DIRECTION('center_axis',(0.,1.,0.));
#963=DIRECTION('ref_axis',(1.,0.,0.));
#964=DIRECTION('center_axis',(0.,1.,0.));
#965=DIRECTION('ref_axis',(1.,0.,0.));
#966=DIRECTION('',(0.,-1.,0.));
#967=DIRECTION('center_axis',(0.,-1.,0.));
#968=DIRECTION('ref_axis',(1.,0.,0.));
#969=DIRECTION('center_axis',(0.,1.,0.));
#970=DIRECTION('ref_axis',(1.,0.,0.));
#971=DIRECTION('center_axis',(0.,1.,0.));
#972=DIRECTION('ref_axis',(1.,0.,0.));
#973=DIRECTION('center_axis',(0.,1.,0.));
#974=DIRECTION('ref_axis',(1.,0.,0.));
#975=DIRECTION('center_axis',(0.,0.,1.));
#976=DIRECTION('ref_axis',(1.,0.,0.));
#977=DIRECTION('center_axis',(0.,-1.,0.));
#978=DIRECTION('ref_axis',(1.,0.,0.));
#979=DIRECTION('',(0.,1.,0.));
#980=DIRECTION('center_axis',(0.,1.,0.));
#981=DIRECTION('ref_axis',(1.,0.,0.));
#982=DIRECTION('center_axis',(0.,-1.,0.));
#983=DIRECTION('ref_axis',(1.,0.,0.));
#984=DIRECTION('',(0.,-1.,0.));
#985=DIRECTION('center_axis',(0.,1.,0.));
#986=DIRECTION('ref_axis',(1.,0.,0.));
#987=DIRECTION('center_axis',(0.,-1.,0.));
#988=DIRECTION('ref_axis',(1.,0.,0.));
#989=DIRECTION('',(0.,-1.,0.));
#990=DIRECTION('center_axis',(0.,1.,0.));
#991=DIRECTION('ref_axis',(1.,0.,0.));
#992=DIRECTION('center_axis',(0.,-1.,0.));
#993=DIRECTION('ref_axis',(1.,0.,0.));
#994=DIRECTION('',(0.,-1.,0.));
#995=DIRECTION('center_axis',(0.,1.,0.));
#996=DIRECTION('ref_axis',(1.,0.,0.));
#997=DIRECTION('',(0.,0.,1.));
#998=DIRECTION('',(1.,0.,0.));
#999=DIRECTION('',(0.,0.,1.));
#1000=DIRECTION('',(1.,0.,0.));
#1001=CARTESIAN_POINT('',(0.,0.,0.));
#1002=CARTESIAN_POINT('',(0.,0.,0.));
#1003=CARTESIAN_POINT('Origin',(-14.925,-10.8719614796534,19.));
#1004=CARTESIAN_POINT('',(-12.8320430252817,-7.62196147965336,19.));
#1005=CARTESIAN_POINT('Ctrl Pts',(-12.8320430252817,-7.62196147965336,19.));
#1006=CARTESIAN_POINT('Ctrl Pts',(-12.8320430252817,-7.62196147965336,19.3980468898001));
#1007=CARTESIAN_POINT('Ctrl Pts',(-12.7865602053208,-7.70007582450357,19.818399564069));
#1008=CARTESIAN_POINT('Ctrl Pts',(-12.5993372315382,-8.00274912278961,20.5805866404052));
#1009=CARTESIAN_POINT('Ctrl Pts',(-12.4564817333454,-8.22672031471326,20.922379955236));
#1010=CARTESIAN_POINT('Ctrl Pts',(-12.0584710216997,-8.80418768777217,21.5559871532257));
#1011=CARTESIAN_POINT('Ctrl Pts',(-11.7505796230011,-9.21886150721577,21.8353335142339));
#1012=CARTESIAN_POINT('Ctrl Pts',(-11.0335940057108,-10.0659494085472,22.1815400890012));
#1013=CARTESIAN_POINT('Ctrl Pts',(-10.6238100747231,-10.497124561171,22.25));
#1014=CARTESIAN_POINT('Ctrl Pts',(-9.67931884143812,-11.3854348031708,22.25));
#1015=CARTESIAN_POINT('Ctrl Pts',(-9.05337244405776,-11.8910568724283,22.124820026124));
#1016=CARTESIAN_POINT('Ctrl Pts',(-7.76810649758225,-12.7678227902002,21.6849155459822));
#1017=CARTESIAN_POINT('Ctrl Pts',(-7.10831349939362,-13.1398973841526,21.37343596888));
#1018=CARTESIAN_POINT('Ctrl Pts',(-6.05845042796679,-13.6496419969978,20.7255918143644));
#1019=CARTESIAN_POINT('Ctrl Pts',(-5.51840957710262,-13.8722427089113,20.3354699463825));
#1020=CARTESIAN_POINT('Ctrl Pts',(-5.08044155108179,-14.0340399085595,19.7611417700201));
#1021=CARTESIAN_POINT('Ctrl Pts',(-4.99095930594661,-14.0659310227078,19.6200563736701));
#1022=CARTESIAN_POINT('Ctrl Pts',(-4.86480722073388,-14.1100581555192,19.3172398204036));
#1023=CARTESIAN_POINT('Ctrl Pts',(-4.82968207723724,-14.1219614796534,19.1548191222845));
#1024=CARTESIAN_POINT('Ctrl Pts',(-4.82968207723724,-14.1219614796534,18.8157777816266));
#1025=CARTESIAN_POINT('Ctrl Pts',(-4.87909157032204,-14.1052499522379,18.6265324476821));
#1026=CARTESIAN_POINT('Ctrl Pts',(-5.04764537751081,-14.045813856587,18.2786862342292));
#1027=CARTESIAN_POINT('Ctrl Pts',(-5.1646477830837,-14.0034915513326,18.1189830152995));
#1028=CARTESIAN_POINT('Ctrl Pts',(-5.74617795957054,-13.7834465272616,17.4503237647276));
#1029=CARTESIAN_POINT('Ctrl Pts',(-6.43980470238596,-13.4803372003659,17.012181643));
#1030=CARTESIAN_POINT('Ctrl Pts',(-7.53827453897528,-12.894675638289,16.4265200809231));
#1031=CARTESIAN_POINT('Ctrl Pts',(-8.10744009311277,-12.5494096027967,16.1834016815522));
#1032=CARTESIAN_POINT('Ctrl Pts',(-9.21529315047045,-11.7599592284104,15.8442882563066));
#1033=CARTESIAN_POINT('Ctrl Pts',(-9.75405373878744,-11.3151453474188,15.75));
#1034=CARTESIAN_POINT('Ctrl Pts',(-10.6032220933848,-10.5164879115553,15.75));
#1035=CARTESIAN_POINT('Ctrl Pts',(-10.9936148855809,-10.1083374873933,15.8114977878468));
#1036=CARTESIAN_POINT('Ctrl Pts',(-11.6847235287784,-9.30082186492827,16.1222942615878));
#1037=CARTESIAN_POINT('Ctrl Pts',(-11.9859162624985,-8.90250761136127,16.3732597905795));
#1038=CARTESIAN_POINT('Ctrl Pts',(-12.40602109054,-8.30391660258684,16.971850799354));
#1039=CARTESIAN_POINT('Ctrl Pts',(-12.5678178008637,-8.05269945674054,17.325545412427));
#1040=CARTESIAN_POINT('Ctrl Pts',(-12.780078689473,-7.71139403179399,18.1265849872002));
#1041=CARTESIAN_POINT('Ctrl Pts',(-12.8320430252817,-7.62196147965336,18.5738109844273));
#1042=CARTESIAN_POINT('Ctrl Pts',(-12.8320430252817,-7.62196147965336,19.));
#1043=CARTESIAN_POINT('',(-3.925,-7.62196147965336,19.));
#1044=CARTESIAN_POINT('',(-14.925,-7.62196147965336,19.));
#1045=CARTESIAN_POINT('Origin',(-3.925,-10.8719614796534,19.));
#1046=CARTESIAN_POINT('Origin',(-3.925,-10.8719614796534,19.));
#1047=CARTESIAN_POINT('',(-3.925,-9.37196147965336,19.));
#1048=CARTESIAN_POINT('Origin',(-3.925,-10.8719614796534,19.));
#1049=CARTESIAN_POINT('Origin',(-14.925,-10.8719614796534,7.));
#1050=CARTESIAN_POINT('',(-12.8320430252817,-7.62196147965336,7.));
#1051=CARTESIAN_POINT('Ctrl Pts',(-12.8320430252817,-7.62196147965336,7.));
#1052=CARTESIAN_POINT('Ctrl Pts',(-12.8320430252817,-7.62196147965336,7.3980468898001));
#1053=CARTESIAN_POINT('Ctrl Pts',(-12.7865602053208,-7.70007582450357,7.81839956406899));
#1054=CARTESIAN_POINT('Ctrl Pts',(-12.5993372315382,-8.00274912278961,8.58058664040517));
#1055=CARTESIAN_POINT('Ctrl Pts',(-12.4564817333454,-8.22672031471325,8.92237995523599));
#1056=CARTESIAN_POINT('Ctrl Pts',(-12.0584710216997,-8.80418768777217,9.55598715322572));
#1057=CARTESIAN_POINT('Ctrl Pts',(-11.7505796230011,-9.21886150721577,9.83533351423393));
#1058=CARTESIAN_POINT('Ctrl Pts',(-11.0335940057108,-10.0659494085472,10.1815400890012));
#1059=CARTESIAN_POINT('Ctrl Pts',(-10.6238100747231,-10.497124561171,10.25));
#1060=CARTESIAN_POINT('Ctrl Pts',(-9.67931884143812,-11.3854348031708,10.25));
#1061=CARTESIAN_POINT('Ctrl Pts',(-9.05337244405776,-11.8910568724283,10.124820026124));
#1062=CARTESIAN_POINT('Ctrl Pts',(-7.76810649758225,-12.7678227902002,9.68491554598222));
#1063=CARTESIAN_POINT('Ctrl Pts',(-7.10831349939362,-13.1398973841526,9.37343596887995));
#1064=CARTESIAN_POINT('Ctrl Pts',(-6.05845042796679,-13.6496419969978,8.72559181436438));
#1065=CARTESIAN_POINT('Ctrl Pts',(-5.51840957710262,-13.8722427089113,8.3354699463825));
#1066=CARTESIAN_POINT('Ctrl Pts',(-5.08044155108179,-14.0340399085595,7.76114177002009));
#1067=CARTESIAN_POINT('Ctrl Pts',(-4.99095930594661,-14.0659310227078,7.62005637367007));
#1068=CARTESIAN_POINT('Ctrl Pts',(-4.86480722073388,-14.1100581555192,7.31723982040358));
#1069=CARTESIAN_POINT('Ctrl Pts',(-4.82968207723724,-14.1219614796534,7.15481912228448));
#1070=CARTESIAN_POINT('Ctrl Pts',(-4.82968207723724,-14.1219614796534,6.84518087771551));
#1071=CARTESIAN_POINT('Ctrl Pts',(-4.86480722073388,-14.1100581555192,6.68276017959642));
#1072=CARTESIAN_POINT('Ctrl Pts',(-4.99095930594661,-14.0659310227078,6.37994362632992));
#1073=CARTESIAN_POINT('Ctrl Pts',(-5.08044155108179,-14.0340399085595,6.23885822997991));
#1074=CARTESIAN_POINT('Ctrl Pts',(-5.51840957710262,-13.8722427089113,5.6645300536175));
#1075=CARTESIAN_POINT('Ctrl Pts',(-6.05845042796679,-13.6496419969978,5.27440818563562));
#1076=CARTESIAN_POINT('Ctrl Pts',(-7.10831349939362,-13.1398973841526,4.62656403112004));
#1077=CARTESIAN_POINT('Ctrl Pts',(-7.76810649758225,-12.7678227902002,4.31508445401778));
#1078=CARTESIAN_POINT('Ctrl Pts',(-9.05337244405776,-11.8910568724283,3.87517997387597));
#1079=CARTESIAN_POINT('Ctrl Pts',(-9.67931884143812,-11.3854348031708,3.75));
#1080=CARTESIAN_POINT('Ctrl Pts',(-10.6238100747231,-10.497124561171,3.75));
#1081=CARTESIAN_POINT('Ctrl Pts',(-11.0335940057108,-10.0659494085472,3.8184599109988));
#1082=CARTESIAN_POINT('Ctrl Pts',(-11.7505796230011,-9.21886150721577,4.16466648576607));
#1083=CARTESIAN_POINT('Ctrl Pts',(-12.0584710216997,-8.80418768777217,4.44401284677427));
#1084=CARTESIAN_POINT('Ctrl Pts',(-12.4564817333454,-8.22672031471325,5.07762004476401));
#1085=CARTESIAN_POINT('Ctrl Pts',(-12.5993372315382,-8.00274912278961,5.41941335959482));
#1086=CARTESIAN_POINT('Ctrl Pts',(-12.7865602053208,-7.70007582450357,6.181600435931));
#1087=CARTESIAN_POINT('Ctrl Pts',(-12.8320430252817,-7.62196147965336,6.6019531101999));
#1088=CARTESIAN_POINT('Ctrl Pts',(-12.8320430252817,-7.62196147965336,7.));
#1089=CARTESIAN_POINT('',(-3.925,-7.62196147965336,7.));
#1090=CARTESIAN_POINT('',(-14.925,-7.62196147965336,7.));
#1091=CARTESIAN_POINT('Origin',(-3.925,-10.8719614796534,7.));
#1092=CARTESIAN_POINT('Origin',(-3.925,-10.8719614796534,7.));
#1093=CARTESIAN_POINT('',(-3.925,-9.37196147965336,7.));
#1094=CARTESIAN_POINT('Origin',(-3.925,-10.8719614796534,7.));
#1095=CARTESIAN_POINT('Origin',(-14.925,-10.8719614796534,19.));
#1096=CARTESIAN_POINT('',(1.,-9.37196147965336,19.));
#1097=CARTESIAN_POINT('Origin',(1.,-10.8719614796534,19.));
#1098=CARTESIAN_POINT('',(11.615591376417,-9.37196147965336,19.));
#1099=CARTESIAN_POINT('',(-14.925,-9.37196147965337,19.));
#1100=CARTESIAN_POINT('Ctrl Pts',(11.615591376417,-9.37196147965336,19.));
#1101=CARTESIAN_POINT('Ctrl Pts',(11.615591376417,-9.37196147965336,18.7981779605006));
#1102=CARTESIAN_POINT('Ctrl Pts',(11.5809615680026,-9.41528518719599,18.5896359714709));
#1103=CARTESIAN_POINT('Ctrl Pts',(11.4497101156294,-9.5744663067221,18.2210198650331));
#1104=CARTESIAN_POINT('Ctrl Pts',(11.3529111820246,-9.68984066645441,18.0608004696393));
#1105=CARTESIAN_POINT('Ctrl Pts',(11.1164749645704,-9.96087377009227,17.7897673660015));
#1106=CARTESIAN_POINT('Ctrl Pts',(10.9536206610362,-10.1409887627787,17.6751474960227));
#1107=CARTESIAN_POINT('Ctrl Pts',(10.5985762834592,-10.5115003575594,17.5304344652518));
#1108=CARTESIAN_POINT('Ctrl Pts',(10.40630821268,-10.7016888015769,17.5));
#1109=CARTESIAN_POINT('Ctrl Pts',(10.0265133002013,-11.0588924459567,17.5));
#1110=CARTESIAN_POINT('Ctrl Pts',(9.80542016970924,-11.2556991070326,17.5364667566764));
#1111=CARTESIAN_POINT('Ctrl Pts',(9.36807934307944,-11.6222251089686,17.6861169709915));
#1112=CARTESIAN_POINT('Ctrl Pts',(9.15183160297661,-11.7921292086987,17.7988473854857));
#1113=CARTESIAN_POINT('Ctrl Pts',(8.8117101459074,-12.0476582043121,18.0543763810991));
#1114=CARTESIAN_POINT('Ctrl Pts',(8.65556856251104,-12.1596373891361,18.2056257266963));
#1115=CARTESIAN_POINT('Ctrl Pts',(8.48148834886274,-12.2810824526334,18.4763941951667));
#1116=CARTESIAN_POINT('Ctrl Pts',(8.43337267227321,-12.3140349699309,18.5739002350265));
#1117=CARTESIAN_POINT('Ctrl Pts',(8.36666709747521,-12.359456149398,18.7798564510093));
#1118=CARTESIAN_POINT('Ctrl Pts',(8.3480652935859,-12.3719614796534,18.8882946824077));
#1119=CARTESIAN_POINT('Ctrl Pts',(8.3480652935859,-12.3719614796534,19.0958681553658));
#1120=CARTESIAN_POINT('Ctrl Pts',(8.36188397988357,-12.3626665516827,19.1909182754783));
#1121=CARTESIAN_POINT('Ctrl Pts',(8.41346850763015,-12.327615947041,19.3738520495165));
#1122=CARTESIAN_POINT('Ctrl Pts',(8.45122928670869,-12.3018496275317,19.4617350915662));
#1123=CARTESIAN_POINT('Ctrl Pts',(8.58977756082585,-12.2058989752351,19.7083277934378));
#1124=CARTESIAN_POINT('Ctrl Pts',(8.7163971333065,-12.1162901803546,19.8500271774194));
#1125=CARTESIAN_POINT('Ctrl Pts',(9.04129282704443,-11.8773581177069,20.1363658983183));
#1126=CARTESIAN_POINT('Ctrl Pts',(9.27769634928955,-11.6952006288692,20.2729285692987));
#1127=CARTESIAN_POINT('Ctrl Pts',(9.75930781326683,-11.2964276848195,20.4553000407423));
#1128=CARTESIAN_POINT('Ctrl Pts',(10.0046440153468,-11.0794608843253,20.5));
#1129=CARTESIAN_POINT('Ctrl Pts',(10.4190940084539,-10.6896635408462,20.5));
#1130=CARTESIAN_POINT('Ctrl Pts',(10.6242065373349,-10.4859722428097,20.4651250249374));
#1131=CARTESIAN_POINT('Ctrl Pts',(10.9986529037515,-10.0925225901712,20.2992514476816));
#1132=CARTESIAN_POINT('Ctrl Pts',(11.1681438947734,-9.90298655091106,20.1680804347832));
#1133=CARTESIAN_POINT('Ctrl Pts',(11.3918465369255,-9.64370661163612,19.8757481821552));
#1134=CARTESIAN_POINT('Ctrl Pts',(11.4747783008922,-9.54425720576854,19.7222956011907));
#1135=CARTESIAN_POINT('Ctrl Pts',(11.5866212097096,-9.40816619105395,19.3765811856475));
#1136=CARTESIAN_POINT('Ctrl Pts',(11.615591376417,-9.37196147965336,19.1841666174378));
#1137=CARTESIAN_POINT('Ctrl Pts',(11.615591376417,-9.37196147965336,19.));
#1138=CARTESIAN_POINT('Origin',(-14.925,-10.8719614796534,19.));
#1139=CARTESIAN_POINT('',(-1.,-9.37196147965336,19.));
#1140=CARTESIAN_POINT('',(-14.925,-9.37196147965337,19.));
#1141=CARTESIAN_POINT('Origin',(-1.,-10.8719614796534,19.));
#1142=CARTESIAN_POINT('Origin',(-14.925,-10.8719614796534,7.));
#1143=CARTESIAN_POINT('',(1.,-9.37196147965336,7.));
#1144=CARTESIAN_POINT('Origin',(1.,-10.8719614796534,7.));
#1145=CARTESIAN_POINT('',(11.615591376417,-9.37196147965336,7.));
#1146=CARTESIAN_POINT('',(-14.925,-9.37196147965337,7.));
#1147=CARTESIAN_POINT('Ctrl Pts',(11.615591376417,-9.37196147965336,7.));
#1148=CARTESIAN_POINT('Ctrl Pts',(11.615591376417,-9.37196147965336,6.81583338256219));
#1149=CARTESIAN_POINT('Ctrl Pts',(11.5866212097096,-9.40816619105395,6.62341881435245));
#1150=CARTESIAN_POINT('Ctrl Pts',(11.4747783008922,-9.54425720576854,6.27770439880934));
#1151=CARTESIAN_POINT('Ctrl Pts',(11.3918465369255,-9.64370661163612,6.12425181784479));
#1152=CARTESIAN_POINT('Ctrl Pts',(11.1681438947734,-9.90298655091106,5.83191956521683));
#1153=CARTESIAN_POINT('Ctrl Pts',(10.9986529037515,-10.0925225901712,5.70074855231844));
#1154=CARTESIAN_POINT('Ctrl Pts',(10.6242065373349,-10.4859722428097,5.53487497506262));
#1155=CARTESIAN_POINT('Ctrl Pts',(10.4190940084539,-10.6896635408462,5.5));
#1156=CARTESIAN_POINT('Ctrl Pts',(10.0046440153468,-11.0794608843253,5.5));
#1157=CARTESIAN_POINT('Ctrl Pts',(9.75930781326682,-11.2964276848195,5.54469995925765));
#1158=CARTESIAN_POINT('Ctrl Pts',(9.27769634928955,-11.6952006288692,5.72707143070128));
#1159=CARTESIAN_POINT('Ctrl Pts',(9.04129282704442,-11.8773581177069,5.86363410168167));
#1160=CARTESIAN_POINT('Ctrl Pts',(8.7163971333065,-12.1162901803546,6.14997282258063));
#1161=CARTESIAN_POINT('Ctrl Pts',(8.58977756082585,-12.2058989752351,6.29167220656215));
#1162=CARTESIAN_POINT('Ctrl Pts',(8.45122928670869,-12.3018496275317,6.53826490843379));
#1163=CARTESIAN_POINT('Ctrl Pts',(8.41346850763015,-12.327615947041,6.62614795048354));
#1164=CARTESIAN_POINT('Ctrl Pts',(8.36188397988358,-12.3626665516827,6.80908172452165));
#1165=CARTESIAN_POINT('Ctrl Pts',(8.3480652935859,-12.3719614796534,6.90413184463419));
#1166=CARTESIAN_POINT('Ctrl Pts',(8.3480652935859,-12.3719614796534,7.0958681553658));
#1167=CARTESIAN_POINT('Ctrl Pts',(8.36188397988357,-12.3626665516827,7.19091827547835));
#1168=CARTESIAN_POINT('Ctrl Pts',(8.41346850763015,-12.327615947041,7.37385204951645));
#1169=CARTESIAN_POINT('Ctrl Pts',(8.45122928670869,-12.3018496275317,7.4617350915662));
#1170=CARTESIAN_POINT('Ctrl Pts',(8.58977756082585,-12.2058989752351,7.70832779343784));
#1171=CARTESIAN_POINT('Ctrl Pts',(8.7163971333065,-12.1162901803546,7.85002717741936));
#1172=CARTESIAN_POINT('Ctrl Pts',(9.04129282704443,-11.8773581177069,8.13636589831832));
#1173=CARTESIAN_POINT('Ctrl Pts',(9.27769634928955,-11.6952006288692,8.27292856929871));
#1174=CARTESIAN_POINT('Ctrl Pts',(9.75930781326683,-11.2964276848195,8.45530004074235));
#1175=CARTESIAN_POINT('Ctrl Pts',(10.0046440153468,-11.0794608843253,8.5));
#1176=CARTESIAN_POINT('Ctrl Pts',(10.4190940084539,-10.6896635408462,8.5));
#1177=CARTESIAN_POINT('Ctrl Pts',(10.6242065373349,-10.4859722428097,8.46512502493738));
#1178=CARTESIAN_POINT('Ctrl Pts',(10.9986529037515,-10.0925225901712,8.29925144768156));
#1179=CARTESIAN_POINT('Ctrl Pts',(11.1681438947734,-9.90298655091106,8.16808043478316));
#1180=CARTESIAN_POINT('Ctrl Pts',(11.3918465369255,-9.64370661163612,7.8757481821552));
#1181=CARTESIAN_POINT('Ctrl Pts',(11.4747783008922,-9.54425720576854,7.72229560119066));
#1182=CARTESIAN_POINT('Ctrl Pts',(11.5866212097096,-9.40816619105395,7.37658118564754));
#1183=CARTESIAN_POINT('Ctrl Pts',(11.615591376417,-9.37196147965336,7.18416661743781));
#1184=CARTESIAN_POINT('Ctrl Pts',(11.615591376417,-9.37196147965336,7.));
#1185=CARTESIAN_POINT('Origin',(-14.925,-10.8719614796534,7.));
#1186=CARTESIAN_POINT('',(-1.,-9.37196147965336,7.));
#1187=CARTESIAN_POINT('',(-14.925,-9.37196147965337,7.));
#1188=CARTESIAN_POINT('Origin',(-1.,-10.8719614796534,7.));
#1189=CARTESIAN_POINT('Origin',(-1.,-14.8914614796534,0.));
#1190=CARTESIAN_POINT('',(-1.,-6.85241745663529,0.));
#1191=CARTESIAN_POINT('',(-1.,-14.8914614796534,0.));
#1192=CARTESIAN_POINT('',(-1.,-6.85241745663529,0.));
#1193=CARTESIAN_POINT('',(-1.,-6.85241745663529,25.));
#1194=CARTESIAN_POINT('',(-1.,-6.85241745663529,0.));
#1195=CARTESIAN_POINT('',(-1.,-14.8914614796534,25.));
#1196=CARTESIAN_POINT('',(-1.,-6.85241745663529,25.));
#1197=CARTESIAN_POINT('',(-1.,-14.8914614796534,0.));
#1198=CARTESIAN_POINT('Origin',(0.,0.,0.));
#1199=CARTESIAN_POINT('',(1.,-14.8914614796534,0.));
#1200=CARTESIAN_POINT('Origin',(0.,0.,0.));
#1201=CARTESIAN_POINT('',(1.,-14.8914614796534,25.));
#1202=CARTESIAN_POINT('Origin',(0.,0.,25.));
#1203=CARTESIAN_POINT('',(1.,-14.8914614796534,0.));
#1204=CARTESIAN_POINT('Origin',(1.,-6.85241745663529,0.));
#1205=CARTESIAN_POINT('',(1.,-6.85241745663529,0.));
#1206=CARTESIAN_POINT('',(1.,-6.85241745663529,0.));
#1207=CARTESIAN_POINT('',(1.,-6.85241745663529,25.));
#1208=CARTESIAN_POINT('',(1.,-6.85241745663529,25.));
#1209=CARTESIAN_POINT('',(1.,-6.85241745663529,0.));
#1210=CARTESIAN_POINT('Origin',(0.,0.,0.));
#1211=CARTESIAN_POINT('Origin',(0.,0.,0.));
#1212=CARTESIAN_POINT('Origin',(0.,0.,25.));
#1213=CARTESIAN_POINT('Origin',(0.,0.0167692601733171,25.));
#1214=CARTESIAN_POINT('Origin',(0.,0.0167692601733171,0.));
#1215=CARTESIAN_POINT('',(0.,0.,0.));
#1216=CARTESIAN_POINT('Origin',(3.65557069545485E-15,16.175,12.5));
#1217=CARTESIAN_POINT('',(13.,16.175,12.5));
#1218=CARTESIAN_POINT('',(2.06352985656329E-15,16.175,-0.5));
#1219=CARTESIAN_POINT('Origin',(3.65557069545485E-15,16.175,12.5));
#1220=CARTESIAN_POINT('',(2.09414602654197E-15,15.925,-0.250000000000001));
#1221=CARTESIAN_POINT('Origin',(2.09414602654197E-15,16.175,-0.250000000000001));
#1222=CARTESIAN_POINT('Origin',(3.65557069545485E-15,15.925,12.5));
#1223=CARTESIAN_POINT('Origin',(3.65557069545485E-15,16.175,12.5));
#1224=CARTESIAN_POINT('Origin',(3.65557069545485E-15,15.925,12.5));
#1225=CARTESIAN_POINT('',(7.34503704354629,16.4869934720089,23.2261563865588));
#1226=CARTESIAN_POINT('',(13.,16.4869934720103,12.5));
#1227=CARTESIAN_POINT('Origin',(3.65557069545485E-15,16.4869934720103,12.5));
#1228=CARTESIAN_POINT('',(5.61660539394852,16.4869934720087,24.2240668647296));
#1229=CARTESIAN_POINT('Ctrl Pts',(5.61660539394903,16.4869934720071,24.2240668647301));
#1230=CARTESIAN_POINT('Ctrl Pts',(5.91455684374626,16.5320186891746,24.0813283645685));
#1231=CARTESIAN_POINT('Ctrl Pts',(6.20940286357186,16.5555065063806,23.9261065841402));
#1232=CARTESIAN_POINT('Ctrl Pts',(6.7905971364272,16.5555065063806,23.5905539142557));
#1233=CARTESIAN_POINT('Ctrl Pts',(7.07244615141066,16.5320186891747,23.4128206610968));
#1234=CARTESIAN_POINT('Ctrl Pts',(7.34503704354649,16.4869934720075,23.2261563865594));
#1235=CARTESIAN_POINT('',(-12.9616424359447,16.4869934710173,13.4979104925912));
#1236=CARTESIAN_POINT('Origin',(3.65557069545485E-15,16.4869934720103,12.5));
#1237=CARTESIAN_POINT('',(-12.9616424359447,16.4869934710173,11.5020895074088));
#1238=CARTESIAN_POINT('Ctrl Pts',(-12.9616424363956,16.4869934700496,11.5020895075064));
#1239=CARTESIAN_POINT('Ctrl Pts',(-12.9870029947819,16.53201868849,11.831492286877));
#1240=CARTESIAN_POINT('Ctrl Pts',(-13.,16.5555065063806,12.1644473252524));
#1241=CARTESIAN_POINT('Ctrl Pts',(-13.,16.5555065063806,12.8355526747476));
#1242=CARTESIAN_POINT('Ctrl Pts',(-12.9870029947819,16.53201868849,13.168507713123));
#1243=CARTESIAN_POINT('Ctrl Pts',(-12.9616424363956,16.4869934700496,13.4979104924936));
#1244=CARTESIAN_POINT('',(5.61660539394856,16.4869934720087,0.775933135270467));
#1245=CARTESIAN_POINT('Origin',(3.65557069545485E-15,16.4869934720103,12.5));
#1246=CARTESIAN_POINT('',(7.34503704354624,16.4869934720089,1.77384361344115));
#1247=CARTESIAN_POINT('Ctrl Pts',(7.34503704354644,16.4869934720075,1.77384361344053));
#1248=CARTESIAN_POINT('Ctrl Pts',(7.07244615141063,16.5320186891747,1.58717933890321));
#1249=CARTESIAN_POINT('Ctrl Pts',(6.79059713642719,16.5555065063806,1.40944608574427));
#1250=CARTESIAN_POINT('Ctrl Pts',(6.20940286357188,16.5555065063806,1.07389341585979));
#1251=CARTESIAN_POINT('Ctrl Pts',(5.91455684374628,16.5320186891746,0.918671635431507));
#1252=CARTESIAN_POINT('Ctrl Pts',(5.61660539394907,16.4869934720071,0.775933135269901));
#1253=CARTESIAN_POINT('Origin',(3.65557069545485E-15,16.4869934720103,12.5));
#1254=CARTESIAN_POINT('',(13.,15.925,12.5));
#1255=CARTESIAN_POINT('Origin',(-12.5,15.925,12.5));
#1256=CARTESIAN_POINT('',(-12.5,15.925,12.5));
#1257=CARTESIAN_POINT('',(12.5,15.925,12.5));
#1258=CARTESIAN_POINT('Origin',(3.65557069545485E-15,15.925,12.5));
#1259=CARTESIAN_POINT('Origin',(3.65557069545485E-15,15.925,12.5));
#1260=CARTESIAN_POINT('Origin',(3.65557069545485E-15,15.925,12.5));
#1261=CARTESIAN_POINT('',(12.5,15.9254112230737,12.5));
#1262=CARTESIAN_POINT('',(12.5,15.925,12.5));
#1263=CARTESIAN_POINT('',(9.40577046119454,15.9254112230737,4.26704900832513));
#1264=CARTESIAN_POINT('Origin',(3.65557069545485E-15,15.9254112230737,12.5));
#1265=CARTESIAN_POINT('',(2.42705947630547,15.9254112230737,0.237888342602822));
#1266=CARTESIAN_POINT('Ctrl Pts',(2.42705947630547,15.9254112230737,0.23788834260282));
#1267=CARTESIAN_POINT('Ctrl Pts',(2.95407981010455,16.2052173049665,0.342202324655095));
#1268=CARTESIAN_POINT('Ctrl Pts',(3.47685963770298,16.452080260094,0.481336305155031));
#1269=CARTESIAN_POINT('Ctrl Pts',(4.51194396679029,16.8467185393769,0.829437143105631));
#1270=CARTESIAN_POINT('Ctrl Pts',(5.09262929510332,17.0132885367405,1.06685547626259));
#1271=CARTESIAN_POINT('Ctrl Pts',(6.22290176952238,17.1486634803333,1.64057274017033));
#1272=CARTESIAN_POINT('Ctrl Pts',(6.77255378210252,17.1138451648231,1.97759287803165));
#1273=CARTESIAN_POINT('Ctrl Pts',(7.88232916661607,16.8619405584911,2.76719196492834));
#1274=CARTESIAN_POINT('Ctrl Pts',(8.4936156501406,16.5694835461784,3.29614850954263));
#1275=CARTESIAN_POINT('Ctrl Pts',(9.15968374509664,16.113615450163,3.99204963933091));
#1276=CARTESIAN_POINT('Ctrl Pts',(9.28497431733067,16.0209308429088,4.12904493142367));
#1277=CARTESIAN_POINT('Ctrl Pts',(9.40577046119454,15.9254112230737,4.26704900832513));
#1278=CARTESIAN_POINT('',(-11.8328299375,15.9254112230737,8.4708393342777));
#1279=CARTESIAN_POINT('Origin',(3.65557069545485E-15,15.9254112230737,12.5));
#1280=CARTESIAN_POINT('',(-12.5,17.1170887553172,12.5));
#1281=CARTESIAN_POINT('Ctrl Pts',(-12.5,17.1170887553172,12.5));
#1282=CARTESIAN_POINT('Ctrl Pts',(-12.5,17.1170887553172,11.5019521805524));
#1283=CARTESIAN_POINT('Ctrl Pts',(-12.3744968187278,16.8565466925991,10.4798570555381));
#1284=CARTESIAN_POINT('Ctrl Pts',(-12.0528203525852,16.2895140512255,9.16544147445701));
#1285=CARTESIAN_POINT('Ctrl Pts',(-11.9488841397016,16.1129285181528,8.8116670530298));
#1286=CARTESIAN_POINT('Ctrl Pts',(-11.8328299375,15.9254112230738,8.4708393342777));
#1287=CARTESIAN_POINT('',(-11.8328299375,15.9254112230737,16.5291606657223));
#1288=CARTESIAN_POINT('Ctrl Pts',(-11.8328299375,15.9254112230737,16.5291606657223));
#1289=CARTESIAN_POINT('Ctrl Pts',(-11.9488841397016,16.1129285181528,16.1883329469702));
#1290=CARTESIAN_POINT('Ctrl Pts',(-12.0528203525852,16.2895140512255,15.834558525543));
#1291=CARTESIAN_POINT('Ctrl Pts',(-12.3744968187278,16.8565466925991,14.5201429444619));
#1292=CARTESIAN_POINT('Ctrl Pts',(-12.5,17.1170887553172,13.4980478194476));
#1293=CARTESIAN_POINT('Ctrl Pts',(-12.5,17.1170887553172,12.5));
#1294=CARTESIAN_POINT('',(2.42705947630546,15.9254112230737,24.7621116573972));
#1295=CARTESIAN_POINT('Origin',(3.65557069545485E-15,15.9254112230737,12.5));
#1296=CARTESIAN_POINT('',(9.40577046119455,15.9254112230737,20.7329509916749));
#1297=CARTESIAN_POINT('Ctrl Pts',(9.40577046119455,15.9254112230737,20.7329509916749));
#1298=CARTESIAN_POINT('Ctrl Pts',(9.28497431733067,16.0209308429088,20.8709550685763));
#1299=CARTESIAN_POINT('Ctrl Pts',(9.15968374509664,16.113615450163,21.0079503606691));
#1300=CARTESIAN_POINT('Ctrl Pts',(8.4936156501406,16.5694835461784,21.7038514904574));
#1301=CARTESIAN_POINT('Ctrl Pts',(7.88232916661606,16.8619405584911,22.2328080350717));
#1302=CARTESIAN_POINT('Ctrl Pts',(6.77255378210251,17.1138451648231,23.0224071219683));
#1303=CARTESIAN_POINT('Ctrl Pts',(6.22290176952238,17.1486634803333,23.3594272598297));
#1304=CARTESIAN_POINT('Ctrl Pts',(5.09262929510332,17.0132885367405,23.9331445237374));
#1305=CARTESIAN_POINT('Ctrl Pts',(4.51194396679029,16.8467185393769,24.1705628568944));
#1306=CARTESIAN_POINT('Ctrl Pts',(3.47685963770297,16.452080260094,24.518663694845));
#1307=CARTESIAN_POINT('Ctrl Pts',(2.95407981010454,16.2052173049666,24.6577976753449));
#1308=CARTESIAN_POINT('Ctrl Pts',(2.42705947630546,15.9254112230737,24.7621116573972));
#1309=CARTESIAN_POINT('Origin',(3.65557069545485E-15,15.9254112230737,12.5));
#1310=CARTESIAN_POINT('Origin',(-7.99999999999999,19.925,12.5));
#1311=CARTESIAN_POINT('',(-10.,19.925,12.5));
#1312=CARTESIAN_POINT('Origin',(-7.99999999999999,19.925,12.5));
#1313=CARTESIAN_POINT('',(-10.,19.925,12.5));
#1314=CARTESIAN_POINT('',(-11.832003355558,15.925,8.46954797776032));
#1315=CARTESIAN_POINT('Ctrl Pts',(-11.832003355558,15.925,8.46954797776032));
#1316=CARTESIAN_POINT('Ctrl Pts',(-11.832278931199,15.9251370984005,8.46997841374898));
#1317=CARTESIAN_POINT('Ctrl Pts',(-11.8325544585155,15.9252741727597,8.47040886592805));
#1318=CARTESIAN_POINT('Ctrl Pts',(-11.8328299375,15.9254112230737,8.4708393342777));
#1319=CARTESIAN_POINT('',(-11.832003355558,15.925,16.5304520222397));
#1320=CARTESIAN_POINT('Origin',(-7.99999999999999,15.925,12.5));
#1321=CARTESIAN_POINT('Ctrl Pts',(-11.8328299375,15.9254112230737,16.5291606657223));
#1322=CARTESIAN_POINT('Ctrl Pts',(-11.8325544585155,15.9252741727597,16.5295911340719));
#1323=CARTESIAN_POINT('Ctrl Pts',(-11.832278931199,15.9251370984005,16.530021586251));
#1324=CARTESIAN_POINT('Ctrl Pts',(-11.832003355558,15.925,16.5304520222397));
#1325=CARTESIAN_POINT('Origin',(-7.99999999999999,19.925,12.5));
#1326=CARTESIAN_POINT('',(-13.0305,16.5212499891955,12.5));
#1327=CARTESIAN_POINT('Ctrl Pts',(-13.0305,16.5212499891955,12.5));
#1328=CARTESIAN_POINT('Ctrl Pts',(-13.0305,16.5212499891955,12.8229164919886));
#1329=CARTESIAN_POINT('Ctrl Pts',(-13.008540680357,16.5103252659928,13.1593773034327));
#1330=CARTESIAN_POINT('Ctrl Pts',(-12.9616424355039,16.4869934710173,13.4979104925573));
#1331=CARTESIAN_POINT('Ctrl Pts',(-12.9616424355039,16.4869934710173,11.5020895074427));
#1332=CARTESIAN_POINT('Ctrl Pts',(-13.008540680357,16.5103252659928,11.8406226965673));
#1333=CARTESIAN_POINT('Ctrl Pts',(-13.0305,16.5212499891955,12.1770835080114));
#1334=CARTESIAN_POINT('Ctrl Pts',(-13.0305,16.5212499891955,12.5));
#1335=CARTESIAN_POINT('Origin',(4.,19.925,19.4282032302755));
#1336=CARTESIAN_POINT('',(2.,19.925,19.4282032302755));
#1337=CARTESIAN_POINT('Origin',(4.,19.925,19.4282032302755));
#1338=CARTESIAN_POINT('',(-1.56136612898157,15.925,19.4282032302755));
#1339=CARTESIAN_POINT('',(2.,19.925,19.4282032302755));
#1340=CARTESIAN_POINT('',(9.40647551777292,15.925,20.7315894724561));
#1341=CARTESIAN_POINT('Origin',(4.,15.925,19.4282032302755));
#1342=CARTESIAN_POINT('Ctrl Pts',(9.40577046119454,15.9254112230737,20.7329509916749));
#1343=CARTESIAN_POINT('Ctrl Pts',(9.40600552981508,15.9252741660042,20.7324971633322));
#1344=CARTESIAN_POINT('Ctrl Pts',(9.40624054867588,15.9251370916423,20.7320433235826));
#1345=CARTESIAN_POINT('Ctrl Pts',(9.40647551777292,15.925,20.7315894724561));
#1346=CARTESIAN_POINT('',(2.42552783778506,15.925,24.7620414946958));
#1347=CARTESIAN_POINT('Ctrl Pts',(2.42552783778506,15.925,24.7620414946958));
#1348=CARTESIAN_POINT('Ctrl Pts',(2.42603838450618,15.9251370958226,24.7620649317665));
#1349=CARTESIAN_POINT('Ctrl Pts',(2.42654893068831,15.925274170183,24.7620883193344));
#1350=CARTESIAN_POINT('Ctrl Pts',(2.42705947630546,15.9254112230737,24.7621116573972));
#1351=CARTESIAN_POINT('Origin',(4.,15.925,19.4282032302755));
#1352=CARTESIAN_POINT('Origin',(4.,19.925,19.4282032302755));
#1353=CARTESIAN_POINT('Ctrl Pts',(5.6166053939482,16.4869934720087,24.2240668647289));
#1354=CARTESIAN_POINT('Ctrl Pts',(5.70276564899868,16.493342489721,24.1890583788563));
#1355=CARTESIAN_POINT('Ctrl Pts',(5.78841119297318,16.4988260016672,24.1523382103097));
#1356=CARTESIAN_POINT('Ctrl Pts',(6.40570812743933,16.5322432808106,23.8735036403317));
#1357=CARTESIAN_POINT('Ctrl Pts',(6.90935512114657,16.5246803090137,23.5651691474052));
#1358=CARTESIAN_POINT('Ctrl Pts',(7.34503704354594,16.4869934720089,23.2261563865583));
#1359=CARTESIAN_POINT('Origin',(4.00000000000001,19.925,5.57179676972449));
#1360=CARTESIAN_POINT('',(2.00000000000001,19.925,5.57179676972449));
#1361=CARTESIAN_POINT('Origin',(4.00000000000001,19.925,5.57179676972449));
#1362=CARTESIAN_POINT('',(-1.56136612898157,15.925,5.57179676972449));
#1363=CARTESIAN_POINT('',(2.00000000000001,19.925,5.57179676972449));
#1364=CARTESIAN_POINT('',(2.42552783778507,15.925,0.237958505304235));
#1365=CARTESIAN_POINT('Origin',(4.00000000000001,15.925,5.57179676972449));
#1366=CARTESIAN_POINT('Ctrl Pts',(2.42705947630547,15.9254112230737,0.237888342602821));
#1367=CARTESIAN_POINT('Ctrl Pts',(2.42654893068832,15.925274170183,0.237911680665565));
#1368=CARTESIAN_POINT('Ctrl Pts',(2.4260383845062,15.9251370958226,0.237935068233458));
#1369=CARTESIAN_POINT('Ctrl Pts',(2.42552783778507,15.925,0.237958505304234));
#1370=CARTESIAN_POINT('',(9.40647551777292,15.925,4.26841052754392));
#1371=CARTESIAN_POINT('Ctrl Pts',(9.40647551777292,15.925,4.26841052754392));
#1372=CARTESIAN_POINT('Ctrl Pts',(9.40624054867588,15.9251370916423,4.26795667641736));
#1373=CARTESIAN_POINT('Ctrl Pts',(9.40600552981508,15.9252741660042,4.26750283666784));
#1374=CARTESIAN_POINT('Ctrl Pts',(9.40577046119454,15.9254112230737,4.26704900832513));
#1375=CARTESIAN_POINT('Origin',(4.00000000000001,15.925,5.57179676972449));
#1376=CARTESIAN_POINT('Origin',(4.8802174946022E-15,19.925,12.5));
#1377=CARTESIAN_POINT('Origin',(4.8802174946022E-15,15.925,12.5));
#1378=CARTESIAN_POINT('Origin',(4.8802174946022E-15,19.925,12.5));
#1379=CARTESIAN_POINT('Origin',(4.8802174946022E-15,15.925,12.5));
#1380=CARTESIAN_POINT('Origin',(4.8802174946022E-15,19.925,12.5));
#1381=CARTESIAN_POINT('Origin',(4.8802174946022E-15,15.925,12.5));
#1382=CARTESIAN_POINT('Origin',(4.8802174946022E-15,20.6863268949983,12.5));
#1383=CARTESIAN_POINT('',(-16.061,20.6863268949983,12.5));
#1384=CARTESIAN_POINT('',(2.91331227049164E-15,20.6863268949983,-3.561));
#1385=CARTESIAN_POINT('Origin',(4.8802174946022E-15,20.6863268949983,12.5));
#1386=CARTESIAN_POINT('',(2.97531115460159E-15,19.3563875185194,-3.05474069198467));
#1387=CARTESIAN_POINT('Origin',(3.15824163032111E-15,20.6863268949983,-1.561));
#1388=CARTESIAN_POINT('',(-15.5547406919847,19.3563875185194,12.5));
#1389=CARTESIAN_POINT('Origin',(4.44089209850063E-15,19.3563875185194,12.5));
#1390=CARTESIAN_POINT('Origin',(4.44089209850063E-15,19.3563875185194,12.5));
#1391=CARTESIAN_POINT('Origin',(4.8802174946022E-15,20.6863268949983,12.5));
#1392=CARTESIAN_POINT('Origin',(4.8802174946022E-15,19.925,12.5));
#1393=CARTESIAN_POINT('',(-16.061,19.925,12.5));
#1394=CARTESIAN_POINT('Ctrl Pts',(7.34503704354589,16.4869934720089,1.77384361344167));
#1395=CARTESIAN_POINT('Ctrl Pts',(6.90935512114653,16.5246803090137,1.43483085259473));
#1396=CARTESIAN_POINT('Ctrl Pts',(6.40570812743932,16.5322432808106,1.12649635966834));
#1397=CARTESIAN_POINT('Ctrl Pts',(5.7884111929732,16.4988260016672,0.847661789690318));
#1398=CARTESIAN_POINT('Ctrl Pts',(5.70276564899871,16.493342489721,0.810941621143698));
#1399=CARTESIAN_POINT('Ctrl Pts',(5.61660539394824,16.4869934720087,0.775933135271127));
#1400=CARTESIAN_POINT('Origin',(4.8802174946022E-15,19.925,12.5));
#1401=CARTESIAN_POINT('',(-16.061,25.925,12.5));
#1402=CARTESIAN_POINT('Origin',(4.8802174946022E-15,25.925,12.5));
#1403=CARTESIAN_POINT('',(-16.061,19.925,12.5));
#1404=CARTESIAN_POINT('Origin',(4.00000000000001,19.925,5.57179676972449));
#1405=CARTESIAN_POINT('Origin',(3.65557069545485E-15,15.925,12.5));
#1406=CARTESIAN_POINT('Origin',(3.65557069545485E-15,15.925,12.5));
#1407=CARTESIAN_POINT('Origin',(3.65557069545485E-15,15.925,12.5));
#1408=CARTESIAN_POINT('Origin',(0.,0.,0.));
#1409=CARTESIAN_POINT('',(3.65557069545485E-15,14.925,0.));
#1410=CARTESIAN_POINT('',(-12.5,8.15509809873554,12.5));
#1411=CARTESIAN_POINT('Ctrl Pts',(4.16333634234434E-15,14.925,4.33680868994202E-16));
#1412=CARTESIAN_POINT('Ctrl Pts',(-0.833059268368544,14.925,4.45241888751954E-16));
#1413=CARTESIAN_POINT('Ctrl Pts',(-1.68059819886282,14.8539209738104,0.0845974490819962));
#1414=CARTESIAN_POINT('Ctrl Pts',(-3.3391977755658,14.5709689728845,0.424554293352278));
#1415=CARTESIAN_POINT('Ctrl Pts',(-4.15031431743775,14.3592401128271,0.679760896216441));
#1416=CARTESIAN_POINT('Ctrl Pts',(-6.44674799200158,13.5581741786986,1.66200836586608));
#1417=CARTESIAN_POINT('Ctrl Pts',(-7.79345382211416,12.7945626023571,2.61578429245048));
#1418=CARTESIAN_POINT('Ctrl Pts',(-9.93010672553802,11.2242039165053,4.75243719587434));
#1419=CARTESIAN_POINT('Ctrl Pts',(-10.8610915948742,10.2858137243852,6.10099018208313));
#1420=CARTESIAN_POINT('Ctrl Pts',(-11.8198763424874,9.12674948420977,8.35202670249866));
#1421=CARTESIAN_POINT('Ctrl Pts',(-12.069331950556,8.78493591422421,9.14120279699852));
#1422=CARTESIAN_POINT('Ctrl Pts',(-12.4093429652295,8.29771535445459,10.7799711213864));
#1423=CARTESIAN_POINT('Ctrl Pts',(-12.5,8.15509809873555,11.6303703903252));
#1424=CARTESIAN_POINT('Ctrl Pts',(-12.5,8.15509809873555,12.5));
#1425=CARTESIAN_POINT('',(3.65557069545485E-15,14.925,25.));
#1426=CARTESIAN_POINT('Ctrl Pts',(1.11022302462516E-15,14.925,25.));
#1427=CARTESIAN_POINT('Ctrl Pts',(0.833059268368547,14.925,25.));
#1428=CARTESIAN_POINT('Ctrl Pts',(1.68059819886282,14.8539209738104,24.915402550918));
#1429=CARTESIAN_POINT('Ctrl Pts',(3.3391977755658,14.5709689728845,24.5754457066477));
#1430=CARTESIAN_POINT('Ctrl Pts',(4.15031431743775,14.3592401128271,24.3202391037836));
#1431=CARTESIAN_POINT('Ctrl Pts',(6.44674799200158,13.5581741786986,23.3379916341339));
#1432=CARTESIAN_POINT('Ctrl Pts',(7.79345382211417,12.7945626023571,22.3842157075495));
#1433=CARTESIAN_POINT('Ctrl Pts',(9.93010672553803,11.2242039165053,20.2475628041257));
#1434=CARTESIAN_POINT('Ctrl Pts',(10.8610915948742,10.2858137243852,18.8990098179169));
#1435=CARTESIAN_POINT('Ctrl Pts',(11.8198763424875,9.12674948420976,16.6479732975013));
#1436=CARTESIAN_POINT('Ctrl Pts',(12.0693319505561,8.7849359142242,15.8587972030015));
#1437=CARTESIAN_POINT('Ctrl Pts',(12.4093429652295,8.29771535445458,14.2200288786136));
#1438=CARTESIAN_POINT('Ctrl Pts',(12.5,8.15509809873554,13.3696296096748));
#1439=CARTESIAN_POINT('Ctrl Pts',(12.5,8.15509809873554,12.5));
#1440=CARTESIAN_POINT('Ctrl Pts',(12.5,8.15509809873554,11.6303703903252));
#1441=CARTESIAN_POINT('Ctrl Pts',(12.4093429652295,8.29771535445458,10.7799711213864));
#1442=CARTESIAN_POINT('Ctrl Pts',(12.0693319505561,8.7849359142242,9.14120279699852));
#1443=CARTESIAN_POINT('Ctrl Pts',(11.8198763424875,9.12674948420976,8.35202670249866));
#1444=CARTESIAN_POINT('Ctrl Pts',(10.8610915948742,10.2858137243852,6.10099018208314));
#1445=CARTESIAN_POINT('Ctrl Pts',(9.93010672553803,11.2242039165053,4.75243719587434));
#1446=CARTESIAN_POINT('Ctrl Pts',(7.79345382211417,12.7945626023571,2.61578429245048));
#1447=CARTESIAN_POINT('Ctrl Pts',(6.44674799200159,13.5581741786986,1.66200836586608));
#1448=CARTESIAN_POINT('Ctrl Pts',(4.15031431743776,14.3592401128271,0.679760896216439));
#1449=CARTESIAN_POINT('Ctrl Pts',(3.33919777556581,14.5709689728845,0.424554293352278));
#1450=CARTESIAN_POINT('Ctrl Pts',(1.68059819886283,14.8539209738104,0.0845974490819964));
#1451=CARTESIAN_POINT('Ctrl Pts',(0.833059268368552,14.925,5.26180437302497E-16));
#1452=CARTESIAN_POINT('Ctrl Pts',(4.44089209850063E-15,14.925,4.68375338513738E-16));
#1453=CARTESIAN_POINT('Ctrl Pts',(-12.5,8.15509809873555,12.5));
#1454=CARTESIAN_POINT('Ctrl Pts',(-12.5,8.15509809873555,13.3696296096748));
#1455=CARTESIAN_POINT('Ctrl Pts',(-12.4093429652295,8.2977153544546,14.2200288786136));
#1456=CARTESIAN_POINT('Ctrl Pts',(-12.069331950556,8.78493591422422,15.8587972030015));
#1457=CARTESIAN_POINT('Ctrl Pts',(-11.8198763424874,9.12674948420977,16.6479732975013));
#1458=CARTESIAN_POINT('Ctrl Pts',(-10.8610915948742,10.2858137243852,18.8990098179169));
#1459=CARTESIAN_POINT('Ctrl Pts',(-9.93010672553802,11.2242039165053,20.2475628041257));
#1460=CARTESIAN_POINT('Ctrl Pts',(-7.79345382211416,12.7945626023571,22.3842157075495));
#1461=CARTESIAN_POINT('Ctrl Pts',(-6.44674799200158,13.5581741786986,23.3379916341339));
#1462=CARTESIAN_POINT('Ctrl Pts',(-4.15031431743775,14.3592401128271,24.3202391037836));
#1463=CARTESIAN_POINT('Ctrl Pts',(-3.3391977755658,14.5709689728845,24.5754457066477));
#1464=CARTESIAN_POINT('Ctrl Pts',(-1.68059819886282,14.8539209738104,24.915402550918));
#1465=CARTESIAN_POINT('Ctrl Pts',(-0.833059268368545,14.925,25.));
#1466=CARTESIAN_POINT('Ctrl Pts',(8.32667268468867E-16,14.925,25.));
#1467=CARTESIAN_POINT('Origin',(3.65557069545485E-15,14.925,12.5));
#1468=CARTESIAN_POINT('',(-12.5,14.925,12.5));
#1469=CARTESIAN_POINT('Origin',(4.,19.925,19.4282032302755));
#1470=CARTESIAN_POINT('',(2.,25.925,19.4282032302755));
#1471=CARTESIAN_POINT('Origin',(4.,25.925,19.4282032302755));
#1472=CARTESIAN_POINT('',(2.,19.925,19.4282032302755));
#1473=CARTESIAN_POINT('Origin',(-7.99999999999999,19.925,12.5));
#1474=CARTESIAN_POINT('',(-10.,25.925,12.5));
#1475=CARTESIAN_POINT('Origin',(-7.99999999999999,25.925,12.5));
#1476=CARTESIAN_POINT('',(-10.,19.925,12.5));
#1477=CARTESIAN_POINT('Origin',(4.00000000000001,19.925,5.57179676972449));
#1478=CARTESIAN_POINT('',(2.00000000000001,25.925,5.57179676972449));
#1479=CARTESIAN_POINT('Origin',(4.00000000000001,25.925,5.57179676972449));
#1480=CARTESIAN_POINT('',(2.00000000000001,19.925,5.57179676972449));
#1481=CARTESIAN_POINT('Origin',(4.8802174946022E-15,25.925,12.5));
#1482=CARTESIAN_POINT('',(0.,0.,0.));
#1483=CARTESIAN_POINT('',(0.,0.,0.));
#1484=UNCERTAINTY_MEASURE_WITH_UNIT(LENGTH_MEASURE(0.01),#1492,
'DISTANCE_ACCURACY_VALUE',
'Maximum model space distance between geometric entities at asserted c
onnectivities');
#1485=UNCERTAINTY_MEASURE_WITH_UNIT(LENGTH_MEASURE(0.01),#1492,
'DISTANCE_ACCURACY_VALUE',
'Maximum model space distance between geometric entities at asserted c
onnectivities');
#1486=UNCERTAINTY_MEASURE_WITH_UNIT(LENGTH_MEASURE(0.01),#1492,
'DISTANCE_ACCURACY_VALUE',
'Maximum model space distance between geometric entities at asserted c
onnectivities');
#1487=UNCERTAINTY_MEASURE_WITH_UNIT(LENGTH_MEASURE(0.01),#1492,
'DISTANCE_ACCURACY_VALUE',
'Maximum model space distance between geometric entities at asserted c
onnectivities');
#1488=(
GEOMETRIC_REPRESENTATION_CONTEXT(3)
GLOBAL_UNCERTAINTY_ASSIGNED_CONTEXT((#1484))
GLOBAL_UNIT_ASSIGNED_CONTEXT((#1492,#1494,#1495))
REPRESENTATION_CONTEXT('','3D')
);
#1489=(
GEOMETRIC_REPRESENTATION_CONTEXT(3)
GLOBAL_UNCERTAINTY_ASSIGNED_CONTEXT((#1485))
GLOBAL_UNIT_ASSIGNED_CONTEXT((#1492,#1494,#1495))
REPRESENTATION_CONTEXT('','3D')
);
#1490=(
GEOMETRIC_REPRESENTATION_CONTEXT(3)
GLOBAL_UNCERTAINTY_ASSIGNED_CONTEXT((#1486))
GLOBAL_UNIT_ASSIGNED_CONTEXT((#1492,#1494,#1495))
REPRESENTATION_CONTEXT('','3D')
);
#1491=(
GEOMETRIC_REPRESENTATION_CONTEXT(3)
GLOBAL_UNCERTAINTY_ASSIGNED_CONTEXT((#1487))
GLOBAL_UNIT_ASSIGNED_CONTEXT((#1492,#1494,#1495))
REPRESENTATION_CONTEXT('','3D')
);
#1492=(
LENGTH_UNIT()
NAMED_UNIT(*)
SI_UNIT(.MILLI.,.METRE.)
);
#1493=(
LENGTH_UNIT()
NAMED_UNIT(*)
SI_UNIT($,.METRE.)
);
#1494=(
NAMED_UNIT(*)
PLANE_ANGLE_UNIT()
SI_UNIT($,.RADIAN.)
);
#1495=(
NAMED_UNIT(*)
SI_UNIT($,.STERADIAN.)
SOLID_ANGLE_UNIT()
);
#1496=SHAPE_DEFINITION_REPRESENTATION(#1499,#1504);
#1497=SHAPE_DEFINITION_REPRESENTATION(#1500,#1505);
#1498=SHAPE_DEFINITION_REPRESENTATION(#1501,#1506);
#1499=PRODUCT_DEFINITION_SHAPE('',$,#1508);
#1500=PRODUCT_DEFINITION_SHAPE('',$,#1509);
#1501=PRODUCT_DEFINITION_SHAPE('',$,#1510);
#1502=PRODUCT_DEFINITION_SHAPE($,$,#17);
#1503=PRODUCT_DEFINITION_SHAPE($,$,#18);
#1504=SHAPE_REPRESENTATION('',(#706,#794,#795),#1488);
#1505=SHAPE_REPRESENTATION('',(#707),#1489);
#1506=SHAPE_REPRESENTATION('',(#734),#1490);
#1507=PRODUCT_DEFINITION_CONTEXT('part definition',#1518,'design');
#1508=PRODUCT_DEFINITION('Dry erase marker holder end effector',
'Dry erase marker holder end effector v1',#1511,#1507);
#1509=PRODUCT_DEFINITION('Component1','Component1',#1512,#1507);
#1510=PRODUCT_DEFINITION('Connector to arm','Connector to arm',#1513,#1507);
#1511=PRODUCT_DEFINITION_FORMATION('',$,#1520);
#1512=PRODUCT_DEFINITION_FORMATION('',$,#1521);
#1513=PRODUCT_DEFINITION_FORMATION('',$,#1522);
#1514=PRODUCT_RELATED_PRODUCT_CATEGORY(
'Dry erase marker holder end effector v1',
'Dry erase marker holder end effector v1',(#1520));
#1515=PRODUCT_RELATED_PRODUCT_CATEGORY('Component1','Component1',(#1521));
#1516=PRODUCT_RELATED_PRODUCT_CATEGORY('Connector to arm',
'Connector to arm',(#1522));
#1517=APPLICATION_PROTOCOL_DEFINITION('international standard',
'automotive_design',2009,#1518);
#1518=APPLICATION_CONTEXT(
'Core Data for Automotive Mechanical Design Process');
#1519=PRODUCT_CONTEXT('part definition',#1518,'mechanical');
#1520=PRODUCT('Dry erase marker holder end effector',
'Dry erase marker holder end effector v1',$,(#1519));
#1521=PRODUCT('Component1','Component1',$,(#1519));
#1522=PRODUCT('Connector to arm','Connector to arm',$,(#1519));
#1523=PRESENTATION_STYLE_ASSIGNMENT((#1524));
#1524=SURFACE_STYLE_USAGE(.BOTH.,#1525);
#1525=SURFACE_SIDE_STYLE('',(#1526));
#1526=SURFACE_STYLE_FILL_AREA(#1527);
#1527=FILL_AREA_STYLE('Steel - Satin',(#1528));
#1528=FILL_AREA_STYLE_COLOUR('Steel - Satin',#1529);
#1529=COLOUR_RGB('Steel - Satin',0.627450980392157,0.627450980392157,0.627450980392157);
ENDSEC;
END-ISO-10303-21;
